;<svg width="24" height="24" viewBox="0 0 43 43" fill="none" xmlns="http://www.w3.org/2000/svg">
  <path
    d="M1.5 33.5C1.5 30.4191 1.5 28.8787 2.19346 27.7471C2.58148 27.1139 3.11386 26.5815 3.74707 26.1935C4.87869 25.5 6.41912 25.5 9.5 25.5C12.5809 25.5 14.1213 25.5 15.2529 26.1935C15.8861 26.5815 16.4185 27.1139 16.8065 27.7471C17.5 28.8787 17.5 30.4191 17.5 33.5C17.5 36.5809 17.5 38.1213 16.8065 39.2529C16.4185 39.8861 15.8861 40.4185 15.2529 40.8065C14.1213 41.5 12.5809 41.5 9.5 41.5C6.41912 41.5 4.87869 41.5 3.74707 40.8065C3.11386 40.4185 2.58148 39.8861 2.19346 39.2529C1.5 38.1213 1.5 36.5809 1.5 33.5Z"
    stroke="#141B34"
    stroke-width="3"
  />
  <path
    d="M25.5 33.5C25.5 30.4191 25.5 28.8787 26.1935 27.7471C26.5815 27.1139 27.1139 26.5815 27.7471 26.1935C28.8787 25.5 30.4191 25.5 33.5 25.5C36.5809 25.5 38.1213 25.5 39.2529 26.1935C39.8861 26.5815 40.4185 27.1139 40.8065 27.7471C41.5 28.8787 41.5 30.4191 41.5 33.5C41.5 36.5809 41.5 38.1213 40.8065 39.2529C40.4185 39.8861 39.8861 40.4185 39.2529 40.8065C38.1213 41.5 36.5809 41.5 33.5 41.5C30.4191 41.5 28.8787 41.5 27.7471 40.8065C27.1139 40.4185 26.5815 39.8861 26.1935 39.2529C25.5 38.1213 25.5 36.5809 25.5 33.5Z"
    stroke="#141B34"
    stroke-width="3"
  />
  <path
    d="M1.5 9.5C1.5 6.41912 1.5 4.87869 2.19346 3.74707C2.58148 3.11386 3.11386 2.58148 3.74707 2.19346C4.87869 1.5 6.41912 1.5 9.5 1.5C12.5809 1.5 14.1213 1.5 15.2529 2.19346C15.8861 2.58148 16.4185 3.11386 16.8065 3.74707C17.5 4.87869 17.5 6.41912 17.5 9.5C17.5 12.5809 17.5 14.1213 16.8065 15.2529C16.4185 15.8861 15.8861 16.4185 15.2529 16.8065C14.1213 17.5 12.5809 17.5 9.5 17.5C6.41912 17.5 4.87869 17.5 3.74707 16.8065C3.11386 16.4185 2.58148 15.8861 2.19346 15.2529C1.5 14.1213 1.5 12.5809 1.5 9.5Z"
    stroke="#141B34"
    stroke-width="3"
  />
  <path
    d="M25.5 9.5C25.5 6.41912 25.5 4.87869 26.1935 3.74707C26.5815 3.11386 27.1139 2.58148 27.7471 2.19346C28.8787 1.5 30.4191 1.5 33.5 1.5C36.5809 1.5 38.1213 1.5 39.2529 2.19346C39.8861 2.58148 40.4185 3.11386 40.8065 3.74707C41.5 4.87869 41.5 6.41912 41.5 9.5C41.5 12.5809 41.5 14.1213 40.8065 15.2529C40.4185 15.8861 39.8861 16.4185 39.2529 16.8065C38.1213 17.5 36.5809 17.5 33.5 17.5C30.4191 17.5 28.8787 17.5 27.7471 16.8065C27.1139 16.4185 26.5815 15.8861 26.1935 15.2529C25.5 14.1213 25.5 12.5809 25.5 9.5Z"
    stroke="#141B34"
    stroke-width="3"
  />
</svg>
