<svg width="36" height="36" viewBox="0 0 36 36" fill="none" xmlns="http://www.w3.org/2000/svg">
<path d="M20.46 3.84583C21.1647 2.85993 22.7162 3.53231 22.4785 4.72083L20.4971 14.6251H25.875C26.7465 14.6251 27.2709 15.5635 26.8594 16.296L26.79 16.4044L15.54 32.1515C14.8355 33.1378 13.284 32.4659 13.5215 31.2775L15.5039 21.3741H10.125C9.25356 21.3741 8.7292 20.4358 9.14062 19.7032L9.20996 19.5948L20.46 3.84583ZM12.3125 19.1241H16.875C17.5406 19.1241 18.0497 19.695 17.9961 20.34L17.9785 20.4698L16.7568 26.5802L23.6904 16.8751H19.125C18.4595 16.8751 17.9503 16.3042 18.0039 15.6593L18.0215 15.5294L19.2441 9.42004L12.3125 19.1241Z" fill="white"/>
</svg>
