<svg width="36" height="36" viewBox="0 0 32 32" fill="none" xmlns="http://www.w3.org/2000/svg">
<path fill-rule="evenodd" clip-rule="evenodd" d="M23.8747 14.4851L23.8135 14.5812L13.8135 28.5794C13.1872 29.4561 11.8079 28.8585 12.0192 27.802L13.7808 18.9991L8.99981 18.999C8.22516 18.999 7.75913 18.1651 8.12492 17.5139L8.18609 17.4178L18.1861 3.41869C18.8124 2.54191 20.1917 3.13949 19.9804 4.19607L18.2198 13.0001L22.9998 13C23.7745 13 24.2405 13.8339 23.8747 14.4851ZM15.9804 18.1952L14.8948 23.6271L21.0578 15.0001L16.9998 15C16.4082 15 15.9552 14.4925 16.0029 13.9192L16.0192 13.8038L17.1058 8.3731L10.9438 16.9991L14.9998 16.999C15.5914 16.999 16.0444 17.5065 15.9967 18.0798L15.9804 18.1952Z" fill="#B2B2B2"/>
</svg>
