<svg width="758" height="373" viewBox="0 0 758 373" fill="none" xmlns="http://www.w3.org/2000/svg">
<path d="M529.295 162.842V189.178L483.388 214.237M529.295 162.842L428.071 218.74C424.684 220.61 420.878 221.591 417.008 221.591V221.591C413.227 221.591 409.505 220.654 406.174 218.864L301.946 162.842M529.295 162.842L411.248 98.2687L369.435 120.975M301.946 162.842V187.827L406.136 244.472C409.491 246.296 413.249 247.252 417.067 247.252V247.252C420.899 247.252 424.669 246.29 428.033 244.454L483.388 214.237M301.946 162.842C302.432 161.491 302.674 158.79 308.504 154.063L369.435 120.975M483.388 214.237L529.295 239.824M550.426 239.824L616.008 204.71V89.9122L727.496 149.337M369.435 120.975L301.946 85.1852L300.967 84.6645M293.202 66.7586V-1.25064L224.705 -39.0663M293.202 66.7586L285.186 71.6796M293.202 66.7586L303.403 71.6796M224.705 -39.0663L257.496 -56.6236M224.705 -39.0663L176.942 -15.4188C173.527 -13.7282 169.512 -13.7598 166.125 -15.5039L79.6977 -60M309.961 20.3583H364.612L395.946 2.80104M309.961 20.3583L368.984 -11.3798L395.946 2.80104M309.961 20.3583L368.984 53.447M309.961 20.3583V39.9414L368.984 73.0302M395.946 2.80104V23.0594L382.101 31.2099M368.984 53.447V73.0302M368.984 53.447L395.946 39.2662M368.984 73.0302L395.946 58.174V39.2662M395.946 39.2662L382.101 31.2099M364.612 21.0336L382.101 31.2099M493.589 6.17744L508.891 -1.25064V-34.3394L493.589 -26.236V-10.0293M493.589 6.17744V-10.0293M493.589 6.17744L415.62 -34.3394L431.651 -43.118L493.589 -10.0293M285.186 71.6796L294.659 76.4066M285.186 71.6796V83.1594L294.659 88.5616M294.659 76.4066L303.403 71.6796M294.659 76.4066V88.5616M303.403 71.6796V83.1594L300.967 84.6645M294.659 88.5616L300.967 84.6645M103.016 266.212L88.4419 274.264L75.3256 266.875M103.016 266.212L126.333 253.33L88.4419 232.396L51.2791 253.33L75.3256 266.875M103.016 266.212L128.519 279.666L88.4419 301.95L48.3643 281.016L75.3256 266.875M203.574 284.393V297.223M203.574 284.393V284.393C202.171 280.061 199.141 276.444 195.122 274.306L139.45 244.682M203.574 284.393L97.812 340.842C91.9527 343.969 84.9232 343.984 79.051 340.881L5.37209 301.95M1 324.234L65.9137 360.097C73.0433 364.036 81.0554 366.102 89.2006 366.102V366.102C97.3076 366.102 105.283 364.055 112.389 360.151L203.574 310.053V297.223M203.574 297.223L112.302 348.577C105.258 352.54 97.3123 354.622 89.2299 354.622V354.622C81.0722 354.622 73.0547 352.501 65.9641 348.467L3.18605 312.755M3.18605 262.784L88.4419 217.54L139.45 244.682M139.45 244.682V235.097L88.4419 208.086L37.4341 235.097V287.769L88.4419 314.105L139.45 287.769V244.682ZM139.45 244.682L169.326 228.909M169.326 228.909L78.2403 180.4V145.285L1 105.444M169.326 228.909L176.35 225.201M175.884 213.488V224.968L176.35 225.201M175.884 213.488L185.357 217.54M175.884 213.488L185.357 208.761L194.829 212.138M185.357 217.54V229.695M185.357 217.54L194.829 212.138M185.357 229.695L194.829 224.968M185.357 229.695L176.35 225.201M194.829 212.138V224.968M194.829 224.968L399.589 335.039M399.589 335.039V269.537L591.961 372.179M399.589 335.039L331.822 372.179M218.876 317.482H272.07M218.876 317.482L277.171 283.718L304.132 298.574M218.876 317.482V337.065L277.171 368.128L304.132 353.947V335.039M218.876 317.482L277.171 349.22L304.132 335.039M272.07 317.482L304.132 298.574M272.07 317.482L289.558 327.058M304.132 298.574V317.482L289.558 327.058M304.132 335.039L289.558 327.058M477.558 98.2687L540.849 64.2515M631.31 48.0448V15.6314L540.849 64.2515M540.849 64.2515L371.171 -26.236V-59.3247M62.938 -56.6236L70.8824 -52.5719M278.628 -57.2989L177.462 -4.36424C173.729 -2.41112 169.282 -2.38788 165.529 -4.30187L70.8824 -52.5719M269.594 -52.5719C271.341 -53.9225 290.287 -45.1438 283.729 -39.0663V-12.7304L178.07 43.9931H162.039L56.3798 -12.7304V-39.0663C53.4651 -47.1697 69.0767 -52.5719 70.8824 -52.5719M795.992 101.392V202.684M795.992 101.392L746.442 152.713L795.992 202.684M795.992 101.392L847 152.713L795.992 202.684" stroke="url(#paint0_linear_1349_45493)" stroke-opacity="0.11"/>
<defs>
<linearGradient id="paint0_linear_1349_45493" x1="424" y1="-60" x2="424" y2="372.179" gradientUnits="userSpaceOnUse">
<stop stop-color="white" stop-opacity="0.18"/>
<stop offset="1" stop-color="#E6E7E7"/>
</linearGradient>
</defs>
</svg>
