<svg width="38" height="43" viewBox="0 0 38 43" fill="none" xmlns="http://www.w3.org/2000/svg">
<path d="M37.377 24.6475H23.9142C22.1785 22.1537 21.172 19.1896 21.172 16.0098C21.1722 7.5346 28.3197 0.593491 37.377 0V24.6475Z" fill="#2F88FC"/>
<path d="M37.3764 24.6476H25.0561C23.4683 22.7067 22.5482 20.3997 22.5482 17.9249C22.5483 11.3281 29.0884 5.92631 37.3764 5.46399V24.6476Z" fill="#2F7BEF"/>
<path d="M37.3742 25.0298H25.9503C24.4749 23.6372 23.6173 21.9837 23.6173 20.2075C23.6176 15.4771 29.685 11.6049 37.3742 11.2729V25.0298Z" fill="#2F6FE3"/>
<path d="M34.6973 22.3579C36.3607 23.3832 37.4688 25.1996 37.0851 27.1156C35.4411 35.3244 27.5799 42.3225 18.7165 42.3225C8.7397 42.3225 0.808998 34.8546 0.31428 25.1021C-0.153867 15.8734 -0.00790221 10.4498 0.171045 5.60628C0.191131 5.0626 0.268576 4.51309 0.52223 4.03179C0.563982 3.95256 0.607448 3.87668 0.652929 3.80409C1.31434 2.74852 2.79415 2.97462 3.90736 3.53359C12.2058 7.70042 26.8769 17.5378 34.6973 22.3579Z" fill="#2A017B"/>
</svg>
