<svg width="155" height="175" viewBox="0 0 155 175" fill="none" xmlns="http://www.w3.org/2000/svg">
<mask id="path-1-inside-1_294_22416" fill="white">
<path d="M154.551 101.914H98.8825C91.7057 91.6027 87.5456 79.3468 87.5456 66.1982C87.5457 31.1535 117.1 2.45477 154.551 0V101.914Z"/>
</mask>
<path d="M154.551 101.914H98.8825C91.7057 91.6027 87.5456 79.3468 87.5456 66.1982C87.5457 31.1535 117.1 2.45477 154.551 0V101.914Z" fill="white"/>
<path d="M154.551 101.914V112.914H165.551V101.914H154.551ZM98.8825 101.914L89.8541 108.198L93.1365 112.914H98.8825V101.914ZM87.5456 66.1982L76.5456 66.1982V66.1982H87.5456ZM154.551 0H165.551V-11.7446L153.832 -10.9764L154.551 0ZM154.551 101.914V90.9141H98.8825V101.914V112.914H154.551V101.914ZM98.8825 101.914L107.911 95.6302C101.943 87.055 98.5456 76.972 98.5456 66.1982H87.5456H76.5456C76.5456 81.7216 81.4689 96.1504 89.8541 108.198L98.8825 101.914ZM87.5456 66.1982L98.5456 66.1983C98.5457 37.7628 122.754 13.1078 155.271 10.9764L154.551 0L153.832 -10.9764C111.445 -8.19822 76.5457 24.5441 76.5456 66.1982L87.5456 66.1982ZM154.551 0H143.551V101.914H154.551H165.551V0H154.551Z" fill="#2F88FC" mask="url(#path-1-inside-1_294_22416)"/>
<mask id="path-3-inside-2_294_22416" fill="white">
<path d="M154.55 105.912H103.609C97.0433 97.8863 93.237 88.3482 93.237 78.115C93.237 50.8373 120.28 28.4986 154.55 26.5867V105.912Z"/>
</mask>
<path d="M154.55 105.912H103.609C97.0433 97.8863 93.237 88.3482 93.237 78.115C93.237 50.8373 120.28 28.4986 154.55 26.5867V105.912Z" fill="white"/>
<path d="M154.55 105.912V116.912H165.55V105.912H154.55ZM103.609 105.912L95.0952 112.877L98.3961 116.912H103.609V105.912ZM93.237 78.115H82.237V78.115L93.237 78.115ZM154.55 26.5867H165.55V14.9559L153.938 15.6037L154.55 26.5867ZM154.55 105.912V94.9118H103.609V105.912V116.912H154.55V105.912ZM103.609 105.912L112.123 98.9466C106.961 92.6373 104.237 85.505 104.237 78.115L93.237 78.115L82.237 78.115C82.237 91.1915 87.1255 103.135 95.0952 112.877L103.609 105.912ZM93.237 78.115H104.237C104.237 58.884 124.223 39.2957 155.163 37.5696L154.55 26.5867L153.938 15.6037C116.337 17.7015 82.237 42.7906 82.237 78.115H93.237ZM154.55 26.5867H143.55V105.912H154.55H165.55V26.5867H154.55Z" fill="#2F7BEF" mask="url(#path-3-inside-2_294_22416)"/>
<mask id="path-5-inside-3_294_22416" fill="white">
<path d="M154.545 107.494H107.284C101.19 101.738 97.6571 94.8973 97.657 87.5575C97.657 67.996 122.748 51.9767 154.545 50.6054V107.494Z"/>
</mask>
<path d="M154.545 107.494H107.284C101.19 101.738 97.6571 94.8973 97.657 87.5575C97.657 67.996 122.748 51.9767 154.545 50.6054V107.494Z" fill="white"/>
<path d="M154.545 107.494V118.494H165.545V107.494H154.545ZM107.284 107.494L99.7307 115.491L102.91 118.494H107.284V107.494ZM97.657 87.5575H86.657V87.5577L97.657 87.5575ZM154.545 50.6054H165.545V39.1207L154.071 39.6156L154.545 50.6054ZM154.545 107.494V96.494H107.284V107.494V118.494H154.545V107.494ZM107.284 107.494L114.837 99.4973C110.332 95.2415 108.657 91.1216 108.657 87.5573L97.657 87.5575L86.657 87.5577C86.6572 98.6731 92.0485 108.235 99.7307 115.491L107.284 107.494ZM97.657 87.5575H108.657C108.657 82.8789 111.681 76.9698 120.147 71.4992C128.467 66.1233 140.707 62.2124 155.019 61.5952L154.545 50.6054L154.071 39.6156C136.585 40.3697 120.382 45.1542 108.207 53.0211C96.1787 60.7934 86.657 72.6746 86.657 87.5575H97.657ZM154.545 50.6054H143.545V107.494H154.545H165.545V50.6054H154.545Z" fill="#2F6FE3" mask="url(#path-5-inside-3_294_22416)"/>
<path d="M8.65625 17.2305C8.83268 17.2461 9.15798 17.3158 9.58789 17.5196C27.0626 25.805 53.513 41.9362 79.7363 58.501C105.766 74.9437 131.557 91.8041 147.208 101.153C148.518 101.936 149.021 103.113 148.941 104.073C146.076 138.381 113.831 169.499 77.3916 169.499C38.9976 169.499 8.68571 140.846 6.79199 103.515C4.80292 64.3035 5.50971 41.8456 6.27734 21.3956C6.29376 20.9583 6.36499 20.6888 6.4248 20.5411C7.23143 18.5488 7.95388 17.7082 8.65625 17.2305Z" fill="#003280"/>
<path d="M8.65625 17.2305C8.83268 17.2461 9.15798 17.3158 9.58789 17.5196C27.0626 25.805 53.513 41.9362 79.7363 58.501C105.766 74.9437 131.557 91.8041 147.208 101.153C148.518 101.936 149.021 103.113 148.941 104.073C146.076 138.381 113.831 169.499 77.3916 169.499C38.9976 169.499 8.68571 140.846 6.79199 103.515C4.80292 64.3035 5.50971 41.8456 6.27734 21.3956C6.29376 20.9583 6.36499 20.6888 6.4248 20.5411C7.23143 18.5488 7.95388 17.7082 8.65625 17.2305Z" fill="white"/>
<path d="M8.65625 17.2305C8.83268 17.2461 9.15798 17.3158 9.58789 17.5196C27.0626 25.805 53.513 41.9362 79.7363 58.501C105.766 74.9437 131.557 91.8041 147.208 101.153C148.518 101.936 149.021 103.113 148.941 104.073C146.076 138.381 113.831 169.499 77.3916 169.499C38.9976 169.499 8.68571 140.846 6.79199 103.515C4.80292 64.3035 5.50971 41.8456 6.27734 21.3956C6.29376 20.9583 6.36499 20.6888 6.4248 20.5411C7.23143 18.5488 7.95388 17.7082 8.65625 17.2305Z" stroke="#003280" stroke-width="11"/>
</svg>
