<svg width="18" height="18" viewBox="0 0 18 18" fill="none" xmlns="http://www.w3.org/2000/svg">
<path d="M14.8126 0C15.1829 -5.92808e-06 15.4921 -1.0876e-05 15.746 0.0173086C16.0102 0.0353382 16.2598 0.0742073 16.5018 0.174443C17.0633 0.407033 17.5095 0.853162 17.7421 1.41468C17.8423 1.65668 17.8812 1.90628 17.8992 2.17053C17.9165 2.42437 17.9165 2.73357 17.9165 3.10395V6.47938C17.9165 6.84976 17.9165 7.15896 17.8992 7.4128C17.8812 7.67705 17.8423 7.92666 17.7421 8.16865C17.5095 8.73017 17.0633 9.1763 16.5018 9.40889C16.2598 9.50913 16.0102 9.548 15.746 9.56603C15.4921 9.58335 15.1829 9.58334 14.8126 9.58333H14.7705C14.4001 9.58334 14.0909 9.58335 13.837 9.56603C13.5728 9.548 13.3232 9.50913 13.0812 9.40889C12.5197 9.1763 12.0735 8.73017 11.8409 8.16865C11.7407 7.92666 11.7018 7.67705 11.6838 7.4128C11.6665 7.15896 11.6665 6.84977 11.6665 6.47939V6.47938V3.10396V3.10395C11.6665 2.73357 11.6665 2.42437 11.6838 2.17053C11.7018 1.90628 11.7407 1.65668 11.8409 1.41468C12.0735 0.853162 12.5197 0.407033 13.0812 0.174443C13.3232 0.0742073 13.5728 0.0353382 13.837 0.0173086C14.0909 -1.08767e-05 14.4001 -5.92808e-06 14.7705 0H14.7705H14.8125H14.8126Z" fill="#1447E6"/>
<path d="M14.8126 11.667C15.1829 11.667 15.4921 11.667 15.746 11.6843C16.0102 11.7023 16.2598 11.7412 16.5018 11.8414C17.0633 12.074 17.5095 12.5202 17.7421 13.0817C17.8423 13.3237 17.8812 13.5733 17.8992 13.8375C17.9165 14.0914 17.9165 14.4006 17.9165 14.7709V14.813C17.9165 15.1834 17.9165 15.4926 17.8992 15.7465C17.8812 16.0107 17.8423 16.2603 17.7421 16.5023C17.5095 17.0638 17.0633 17.51 16.5018 17.7425C16.2598 17.8428 16.0102 17.8817 15.746 17.8997C15.4921 17.917 15.1829 17.917 14.8126 17.917H14.7705C14.4001 17.917 14.0909 17.917 13.837 17.8997C13.5728 17.8817 13.3232 17.8428 13.0812 17.7425C12.5197 17.51 12.0735 17.0638 11.8409 16.5023C11.7407 16.2603 11.7018 16.0107 11.6838 15.7465C11.6665 15.4926 11.6665 15.1834 11.6665 14.813V14.813V14.771V14.7709C11.6665 14.4006 11.6665 14.0914 11.6838 13.8375C11.7018 13.5733 11.7407 13.3237 11.8409 13.0817C12.0735 12.5202 12.5197 12.074 13.0812 11.8414C13.3232 11.7412 13.5728 11.7023 13.837 11.6843C14.0909 11.667 14.4001 11.667 14.7705 11.667H14.7705H14.8125H14.8126Z" fill="#1447E6"/>
<path d="M5.66836 8.3335C6.41708 8.33347 7.04142 8.33345 7.53707 8.40009C8.06023 8.47043 8.53256 8.62515 8.91212 9.00471C9.29168 9.38427 9.44641 9.8566 9.51674 10.3798C9.58338 10.8754 9.58336 11.4997 9.58334 12.2485V12.2485V14.0018V14.0019C9.58336 14.7506 9.58338 15.3749 9.51674 15.8706C9.44641 16.3937 9.29168 16.8661 8.91212 17.2456C8.53256 17.6252 8.06023 17.7799 7.53707 17.8502C7.04142 17.9169 6.41709 17.9169 5.66837 17.9168H5.66833H3.91501H3.91497C3.16625 17.9169 2.54191 17.9169 2.04627 17.8502C1.52311 17.7799 1.05077 17.6252 0.671216 17.2456C0.291657 16.8661 0.136932 16.3937 0.0665946 15.8706C-4.31941e-05 15.3749 -2.35538e-05 14.7506 0 14.0019V14.0018V12.2485V12.2485C-2.35538e-05 11.4998 -4.31985e-05 10.8754 0.0665946 10.3798C0.136932 9.8566 0.291657 9.38427 0.671216 9.00471C1.05077 8.62515 1.52311 8.47043 2.04627 8.40009C2.54191 8.33345 3.16625 8.33347 3.91498 8.3335H3.915H5.66834H5.66836Z" fill="#1447E6"/>
<path d="M6.47939 0C6.84977 -5.92808e-06 7.15896 -1.0876e-05 7.4128 0.0173086C7.67705 0.0353382 7.92666 0.0742073 8.16865 0.174443C8.73017 0.407034 9.1763 0.853162 9.40889 1.41468C9.50913 1.65668 9.548 1.90628 9.56603 2.17053C9.58335 2.42437 9.58334 2.73357 9.58333 3.10395V3.14605C9.58334 3.51643 9.58335 3.82563 9.56603 4.07947C9.548 4.34372 9.50913 4.59333 9.40889 4.83532C9.1763 5.39684 8.73017 5.84297 8.16865 6.07556C7.92666 6.17579 7.67705 6.21466 7.4128 6.23269C7.15896 6.25001 6.84976 6.25001 6.47938 6.25H3.10395C2.73357 6.25001 2.42437 6.25001 2.17053 6.23269C1.90628 6.21466 1.65668 6.17579 1.41468 6.07556C0.853162 5.84297 0.407033 5.39684 0.174443 4.83532C0.0742073 4.59333 0.0353382 4.34372 0.0173086 4.07947C-1.08767e-05 3.82563 -5.92808e-06 3.51643 0 3.14605V3.14604V3.10396V3.10395C-5.92808e-06 2.73357 -1.0876e-05 2.42437 0.0173086 2.17053C0.0353382 1.90628 0.0742073 1.65668 0.174443 1.41468C0.407033 0.853162 0.853162 0.407034 1.41468 0.174443C1.65668 0.0742073 1.90628 0.0353382 2.17053 0.0173086C2.42437 -1.08767e-05 2.73357 -5.92808e-06 3.10395 0H3.10396H6.47938H6.47939Z" fill="#1447E6"/>
</svg>
