<svg width="107" height="107" viewBox="0 0 107 107" fill="none" xmlns="http://www.w3.org/2000/svg">
<path d="M105.907 26.1299C104.557 22.4338 94.6859 6.68724 84.5435 2.54204C68.7401 -3.91682 54.3416 1.86619 45.1321 20.6493C42.0795 26.8749 32.1837 17.7883 27.6401 29.2557C25.362 35.0054 29.1899 41.7182 26.7589 47.1251C21.7802 58.1981 3.06846 60.8938 0.567876 72.9141C-5.46463 101.912 38.2864 104.619 50.2808 85.1405C65.2258 60.8708 73.1883 123.958 95.0535 102.452C126.405 71.6163 66.7969 67.9733 104.764 37.3705C107.833 34.8964 107.258 29.8258 105.907 26.1299Z" fill="url(#paint0_linear_341_7982)"/>
<path opacity="0.1" d="M94.7827 37.2075H92.1664C92.6919 36.107 92.9867 34.8758 92.9867 33.5759C92.9867 29.5022 90.0985 26.102 86.2525 25.2968L80.2437 12.4501C80.0058 11.9417 79.3996 11.7216 78.8894 11.9586L47.3775 26.6082C46.8675 26.8454 46.6468 27.4498 46.8845 27.9584L51.2107 37.2077H38.3149L37.2915 31.7202C37.0073 30.1956 35.6733 29.0903 34.1181 29.0903H23.1442C21.0421 29.0903 19.338 30.7891 19.338 32.8848V33.1258H9.95599C8.62594 33.1258 7.54785 34.2006 7.54785 35.5266C7.54785 36.8526 8.62594 37.9274 9.95599 37.9274H26.1107C27.4408 37.9274 28.5189 36.8526 28.5189 35.5266H31.4347L38.8704 75.3972C39.0742 76.4898 39.8185 77.3646 40.7958 77.774L36.0818 86.032C35.7026 86.6962 35.7064 87.5112 36.0919 88.1716C36.4772 88.8322 37.1857 89.2385 37.9521 89.2385H39.7376V93.0443C39.3764 92.9496 38.9993 92.8942 38.6084 92.8942C36.1579 92.8942 34.1715 94.8746 34.1715 97.3176C34.1715 99.7606 36.1579 101.741 38.6084 101.741C41.0589 101.741 43.0453 99.7606 43.0453 97.3176C43.0453 96.0062 42.4696 94.8317 41.5603 94.0217C41.7286 93.8363 41.8338 93.5929 41.8338 93.3233V89.2385H86.8072V93.0443C86.446 92.9496 86.0691 92.8942 85.6782 92.8942C83.2279 92.8942 81.2413 94.8746 81.2413 97.3176C81.2413 99.7606 83.2277 101.741 85.6782 101.741C88.1287 101.741 90.115 99.7606 90.115 97.3176C90.115 96.0062 89.5394 94.8317 88.6301 94.0217C88.7984 93.8363 88.9036 93.5929 88.9036 93.3233V89.2385H89.9924C91.1808 89.2385 92.1444 88.278 92.1444 87.093C92.1444 85.9081 91.1808 84.9476 89.9924 84.9476H41.6529L45.6035 78.0271H92.3857C93.5742 78.0271 94.5376 77.0666 94.5376 75.8817V73.7362C94.5376 72.5513 93.5742 71.5908 92.3857 71.5908H90.9598L96.8999 39.7468C97.1451 38.4258 96.1306 37.2075 94.7827 37.2075Z" fill="#4A5565"/>
<path d="M88.1986 26.8453L56.6867 41.4947C56.1767 41.7319 55.5703 41.5118 55.3324 41.0034L46.8848 22.9427C46.6469 22.4343 46.8676 21.8297 47.3776 21.5925L78.8895 6.94312C79.3995 6.70592 80.0059 6.92598 80.2439 7.43444L88.6914 25.4951C88.9293 26.0037 88.7086 26.6081 88.1986 26.8453Z" fill="white"/>
<path d="M60.607 35.6293L58.8837 36.4303C58.3737 36.6675 57.7672 36.4475 57.5293 35.939L52.1888 24.5212C51.9508 24.0127 52.1716 23.4081 52.6818 23.1709L54.4051 22.3699C54.9151 22.1327 55.5215 22.3527 55.7595 22.8612L61.1 34.2791C61.3377 34.7877 61.117 35.3921 60.607 35.6293Z" fill="#D1D5DC"/>
<path d="M65.0205 33.5775L64.4056 33.8634C63.8956 34.1006 63.2892 33.8806 63.0513 33.3721L57.7107 21.9543C57.4728 21.4458 57.6935 20.8412 58.2038 20.604L58.8186 20.3181C59.3286 20.0809 59.935 20.301 60.173 20.8094L65.5135 32.2273C65.7512 32.736 65.5305 33.3403 65.0205 33.5775Z" fill="#D1D5DC"/>
<path d="M68.8264 31.8082L68.2116 32.0941C67.7016 32.3313 67.0951 32.1112 66.8572 31.6028L61.5167 20.1847C61.2787 19.6763 61.4995 19.0717 62.0095 18.8345L62.6243 18.5486C63.1343 18.3114 63.7407 18.5315 63.9787 19.0399L69.3192 30.4578C69.5571 30.9664 69.3364 31.571 68.8264 31.8082Z" fill="#D1D5DC"/>
<path d="M72.6325 30.0385L72.0177 30.3244C71.5077 30.5616 70.9013 30.3415 70.6633 29.833L65.3228 18.4152C65.0849 17.9067 65.3056 17.3021 65.8158 17.0649L66.4307 16.7791C66.9407 16.5419 67.5471 16.7619 67.785 17.2704L73.1256 28.6882C73.3633 29.1969 73.1425 29.8013 72.6325 30.0385Z" fill="#D1D5DC"/>
<path d="M77.8774 27.6L77.2626 27.8859C76.7526 28.1231 76.1461 27.903 75.9082 27.3946L70.5677 15.9767C70.3298 15.4683 70.5505 14.8637 71.0605 14.6265L71.6753 14.3406C72.1853 14.1034 72.7918 14.3234 73.0297 14.8319L78.3702 26.2498C78.6082 26.7584 78.3874 27.3628 77.8774 27.6Z" fill="#D1D5DC"/>
<path d="M82.8943 25.268L81.171 26.069C80.661 26.3062 80.0546 26.0861 79.8167 25.5777L74.4761 14.1598C74.2382 13.6514 74.4589 13.0468 74.9692 12.8096L76.6925 12.0085C77.2025 11.7714 77.8089 11.9914 78.0468 12.4999L83.3874 23.9177C83.6251 24.4264 83.4046 25.0308 82.8943 25.268Z" fill="#D1D5DC"/>
<path d="M89.9924 79.9316H41.653L46.2726 71.8389H41.3205L36.082 81.0158C35.7028 81.6799 35.7066 82.495 36.0921 83.1554C36.4774 83.816 37.1859 84.2222 37.9523 84.2222H89.9924C91.1808 84.2222 92.1444 83.2617 92.1444 82.0768C92.1444 80.8919 91.1808 79.9316 89.9924 79.9316Z" fill="#D1D5DC"/>
<path d="M94.7827 32.6914C95.8189 32.6914 96.5962 33.6268 96.4087 34.6387L89.9448 69.292H43.229L36.4009 32.6914H94.7827Z" fill="#D1D5DC" stroke="#101828"/>
<path d="M41.0527 60.3574L42.8123 69.7926H90.3602L92.1198 60.3574H41.0527Z" fill="white"/>
<path d="M94.5377 70.8656C94.5377 72.0505 93.5743 73.011 92.3857 73.011H42.0442C40.489 73.011 39.1549 71.9055 38.8707 70.3812L31.435 30.5105H19.3379V27.8687C19.3379 25.7731 21.0419 24.0742 23.144 24.0742H34.1179C35.6731 24.0742 37.0071 25.1797 37.2914 26.7041L44.7271 66.5747H92.3855C93.5741 66.5747 94.5375 67.5352 94.5375 68.7201L94.5377 70.8656Z" fill="white"/>
<path d="M26.1107 32.911H9.95599C8.62594 32.911 7.54785 31.8362 7.54785 30.5102C7.54785 29.1842 8.62594 28.1094 9.95599 28.1094H26.1109C27.441 28.1094 28.5191 29.1842 28.5191 30.5102C28.5189 31.836 27.4408 32.911 26.1107 32.911Z" fill="#D1D5DC"/>
<path d="M38.6087 96.7247C41.0591 96.7247 43.0456 94.7442 43.0456 92.3013C43.0456 89.8583 41.0591 87.8779 38.6087 87.8779C36.1583 87.8779 34.1719 89.8583 34.1719 92.3013C34.1719 94.7442 36.1583 96.7247 38.6087 96.7247Z" fill="white"/>
<path d="M38.609 94.1247C39.6192 94.1247 40.4381 93.3083 40.4381 92.3011C40.4381 91.294 39.6192 90.4775 38.609 90.4775C37.5987 90.4775 36.7798 91.294 36.7798 92.3011C36.7798 93.3083 37.5987 94.1247 38.609 94.1247Z" fill="#D1D5DC"/>
<path d="M85.6783 96.7247C88.1287 96.7247 90.1152 94.7442 90.1152 92.3013C90.1152 89.8583 88.1287 87.8779 85.6783 87.8779C83.2279 87.8779 81.2415 89.8583 81.2415 92.3013C81.2415 94.7442 83.2279 96.7247 85.6783 96.7247Z" fill="white"/>
<path d="M85.6783 94.1247C86.6885 94.1247 87.5074 93.3083 87.5074 92.3011C87.5074 91.294 86.6885 90.4775 85.6783 90.4775C84.6681 90.4775 83.8491 91.294 83.8491 92.3011C83.8491 93.3083 84.6681 94.1247 85.6783 94.1247Z" fill="#D1D5DC"/>
<path d="M84.5002 37.0211C89.1872 37.0211 92.9868 33.2331 92.9868 28.5603C92.9868 23.8876 89.1872 20.0996 84.5002 20.0996C79.8132 20.0996 76.0137 23.8876 76.0137 28.5603C76.0137 33.2331 79.8132 37.0211 84.5002 37.0211Z" fill="white"/>
<path d="M82.9524 26.7096C82.3734 26.7096 81.9043 26.2417 81.9043 25.6647V25.6406C81.9043 25.0636 82.3734 24.5957 82.9524 24.5957C83.5314 24.5957 84.0005 25.0636 84.0005 25.6406V25.6647C84.0005 26.2417 83.5314 26.7096 82.9524 26.7096Z" fill="#D1D5DC"/>
<path d="M82.26 31.8389C81.9919 31.8389 81.7233 31.7369 81.519 31.5329C81.1096 31.1248 81.1096 30.4632 81.519 30.0552L85.9996 25.5882C86.4086 25.1802 87.0727 25.1802 87.4817 25.5882C87.8911 25.9963 87.8911 26.658 87.4817 27.0659L83.001 31.5329C82.7966 31.7367 82.5283 31.8389 82.26 31.8389Z" fill="#D1D5DC"/>
<path d="M86.0481 32.525C85.4691 32.525 85 32.0571 85 31.4801V31.4561C85 30.879 85.4691 30.4111 86.0481 30.4111C86.6271 30.4111 87.0962 30.879 87.0962 31.4561V31.4801C87.0962 32.0573 86.6271 32.525 86.0481 32.525Z" fill="#D1D5DC"/>
<path d="M97.2443 32.2982C96.6341 31.5668 95.7371 31.1471 94.7831 31.1471H93.6732C93.9071 30.324 94.035 29.4569 94.035 28.5599C94.035 23.3184 89.7579 19.0543 84.5003 19.0543C79.2428 19.0543 74.9657 23.3184 74.9657 28.5599C74.9657 29.4569 75.0935 30.324 75.3275 31.1471H51.8785L47.8465 22.527L79.3059 7.90183L82.6139 14.9745C82.8586 15.4976 83.4828 15.7237 84.0069 15.48C84.5316 15.2361 84.7584 14.6144 84.5137 14.0913L81.194 6.99296C80.9611 6.4939 80.5464 6.11522 80.0266 5.92693C79.5078 5.73905 78.947 5.76329 78.4464 5.99547L46.9348 20.6449C45.902 21.1238 45.453 22.352 45.9345 23.384L49.5658 31.1471H39.1868L38.3225 26.5127C37.945 24.4935 36.177 23.0281 34.1183 23.0281H23.1446C20.7423 23.0281 18.7432 24.7771 18.3579 27.0646H9.956C8.05012 27.0646 6.49976 28.6103 6.49976 30.5104C6.49976 32.4105 8.05012 33.9561 9.956 33.9561H26.1107C27.6513 33.9561 28.9587 32.9455 29.4037 31.5547H30.5639L37.8401 70.5735C38.0345 71.6126 38.5994 72.5028 39.3811 73.1239L35.1717 80.4982C34.6094 81.4825 34.6155 82.7021 35.1859 83.6787C35.7552 84.6588 36.8153 85.2678 37.9523 85.2678H39.7379V86.9503C39.3733 86.8741 38.9958 86.8333 38.6086 86.8333C35.5842 86.8333 33.1236 89.2864 33.1236 92.3016C33.1236 95.3168 35.5842 97.7699 38.6086 97.7699C41.633 97.7699 44.0936 95.3168 44.0936 92.3016C44.0936 90.4874 43.2023 88.8778 41.8341 87.8826V85.2678H86.8074V86.9503C86.4429 86.8741 86.0652 86.8333 85.6782 86.8333C82.6538 86.8333 80.1934 89.2864 80.1934 92.3016C80.1934 95.3168 82.6538 97.7699 85.6782 97.7699C88.7026 97.7699 91.1632 95.3168 91.1632 92.3016C91.1632 90.4876 90.2719 88.8778 88.9036 87.8826V85.2678H89.9928C91.7566 85.2678 93.1917 83.8363 93.1917 82.0766C93.1917 80.318 91.7566 78.8875 89.9928 78.8875H43.4547L46.2131 74.0558H51.2738C51.8525 74.0558 52.3219 73.5879 52.3219 73.0109C52.3219 72.4339 51.8525 71.966 51.2738 71.966H42.0441C40.9947 71.966 40.0932 71.2192 39.9009 70.1908L32.4656 30.3187C32.3734 29.8239 31.9401 29.4648 31.4351 29.4648H29.4033C28.958 28.0747 27.6508 27.0646 26.1107 27.0646H20.5067C20.8524 25.939 21.9038 25.118 23.1446 25.118H34.1183C35.1677 25.118 36.069 25.8655 36.2617 26.8952L43.697 66.7652C43.7892 67.26 44.2225 67.6191 44.7275 67.6191H92.3848C92.9938 67.6191 93.4895 68.1131 93.4895 68.7204V70.8646C93.4895 71.4719 92.994 71.966 92.3848 71.966H57.4954C56.9164 71.966 56.4472 72.4339 56.4472 73.0109C56.4472 73.5879 56.9164 74.0558 57.4954 74.0558H92.3848C94.1499 74.0558 95.5858 72.6243 95.5858 70.8646V68.7204C95.5858 66.9608 94.1499 65.5292 92.3848 65.5292H92.2205L97.9306 34.9197C98.1044 33.9849 97.8543 33.0295 97.2443 32.2982ZM38.6086 95.6798C36.74 95.6798 35.2199 94.1643 35.2199 92.3014C35.2199 90.4385 36.74 88.9229 38.6086 88.9229C40.4772 88.9229 41.9974 90.4385 41.9974 92.3014C41.9974 94.1643 40.4772 95.6798 38.6086 95.6798ZM85.6784 95.6798C83.81 95.6798 82.2899 94.1643 82.2899 92.3014C82.2899 90.4385 83.81 88.9229 85.6784 88.9229C87.547 88.9229 89.0672 90.4385 89.0672 92.3014C89.0672 94.1643 87.547 95.6798 85.6784 95.6798ZM43.801 74.0558L40.7411 79.4156C40.5564 79.7391 40.5583 80.136 40.7459 80.4576C40.9335 80.7794 41.2788 80.9774 41.6519 80.9774H89.9928C90.6007 80.9774 91.0955 81.4706 91.0955 82.0766C91.0955 82.6839 90.601 83.178 89.9928 83.178H37.9523C37.5607 83.178 37.1958 82.9686 36.9987 82.6292C36.8017 82.2919 36.7996 81.8714 36.9935 81.532L41.2985 73.9904C41.5412 74.0332 41.7905 74.0558 42.0441 74.0558H43.801ZM27.4708 30.5104C27.4708 31.2581 26.8606 31.8663 26.1107 31.8663H9.956C9.20598 31.8663 8.59598 31.2579 8.59598 30.5104C8.59598 29.7628 9.20619 29.1545 9.956 29.1545H26.1107C26.8606 29.1545 27.4708 29.7628 27.4708 30.5104ZM84.5003 21.1441C88.6018 21.1441 91.9388 24.4707 91.9388 28.5599C91.9388 32.6491 88.6018 35.9757 84.5003 35.9757C80.3989 35.9757 77.0619 32.6491 77.0619 28.5599C77.0617 24.4709 80.3987 21.1441 84.5003 21.1441ZM95.8696 34.5381L90.0882 65.5292H45.5985L39.5764 33.237H76.2045C77.8446 36.117 80.9477 38.0656 84.5003 38.0656C88.053 38.0656 91.1558 36.117 92.7961 33.237H94.7831C95.1122 33.237 95.4221 33.3818 95.6327 33.6345C95.843 33.8869 95.9296 34.2165 95.8696 34.5381Z" fill="#4A5565"/>
<path d="M50.5264 57.0461C49.3204 57.0461 48.3425 56.0714 48.3425 54.8689V46.4155C48.3425 45.2132 49.3202 44.2383 50.5264 44.2383C51.7323 44.2383 52.7102 45.213 52.7102 46.4155V54.8691C52.71 56.0714 51.7323 57.0461 50.5264 57.0461Z" fill="white"/>
<path d="M59.1572 57.0461C57.9513 57.0461 56.9734 56.0714 56.9734 54.8689V46.4155C56.9734 45.2132 57.9511 44.2383 59.1572 44.2383C60.3632 44.2383 61.3411 45.213 61.3411 46.4155V54.8691C61.3409 56.0714 60.3632 57.0461 59.1572 57.0461Z" fill="white"/>
<path d="M67.7883 57.0461C66.5824 57.0461 65.6045 56.0714 65.6045 54.8689V46.4155C65.6045 45.2132 66.5822 44.2383 67.7883 44.2383C68.9943 44.2383 69.9722 45.213 69.9722 46.4155V54.8691C69.972 56.0714 68.9943 57.0461 67.7883 57.0461Z" fill="white"/>
<path d="M76.4192 57.0461C75.2132 57.0461 74.2354 56.0714 74.2354 54.8689V46.4155C74.2354 45.2132 75.213 44.2383 76.4192 44.2383C77.6251 44.2383 78.603 45.213 78.603 46.4155V54.8691C78.6028 56.0714 77.6251 57.0461 76.4192 57.0461Z" fill="white"/>
<path d="M85.0503 57.0461C83.8443 57.0461 82.8665 56.0714 82.8665 54.8689V46.4155C82.8665 45.2132 83.8441 44.2383 85.0503 44.2383C86.2563 44.2383 87.2341 45.213 87.2341 46.4155V54.8691C87.2341 56.0714 86.2563 57.0461 85.0503 57.0461Z" fill="white"/>
<path d="M26.2361 89.867C25.9678 89.867 25.6997 89.765 25.4949 89.561L23.2939 87.3667C22.8845 86.9585 22.8845 86.2969 23.2939 85.889L25.4949 83.6946C25.9043 83.2867 26.5677 83.2867 26.9771 83.6946L29.1782 85.889C29.5876 86.2971 29.5876 86.9588 29.1782 87.3667L26.9771 89.561C26.7727 89.7648 26.5044 89.867 26.2361 89.867ZM25.5175 86.6277L26.2363 87.3443L26.9551 86.6277L26.2363 85.9111L25.5175 86.6277Z" fill="#D1D5DC"/>
<path d="M38.6087 17.2996C38.3404 17.2996 38.0723 17.1976 37.8675 16.9936L35.6664 14.7993C35.257 14.3912 35.257 13.7295 35.6664 13.3216L37.8675 11.1272C38.2768 10.7193 38.9403 10.7193 39.3497 11.1272L41.5507 13.3216C41.9601 13.7297 41.9601 14.3914 41.5507 14.7993L39.3497 16.9936C39.1453 17.1976 38.877 17.2996 38.6087 17.2996ZM37.8901 14.0603L38.6089 14.7769L39.3277 14.0603L38.6089 13.3437L37.8901 14.0603Z" fill="#D1D5DC"/>
<path d="M26.5359 75.0779C26.2676 75.0779 25.9995 74.9759 25.7947 74.772L23.5937 72.5776C23.1843 72.1695 23.1843 71.5078 23.5937 71.0999L25.7947 68.9056C26.2041 68.4976 26.8675 68.4976 27.2769 68.9056L29.478 71.0999C29.8874 71.508 29.8874 72.1697 29.478 72.5776L27.2769 74.772C27.0723 74.9759 26.804 75.0779 26.5359 75.0779ZM25.8171 71.8387L26.5359 72.5553L27.2547 71.8387L26.5359 71.122L25.8171 71.8387Z" fill="#D1D5DC"/>
<path d="M9.49895 44.1267C9.23064 44.1267 8.96253 44.0248 8.75773 43.8208C8.34834 43.4126 8.34834 42.751 8.75773 42.3431L10.8539 40.2532C11.2633 39.8453 11.9268 39.8453 12.3362 40.2532C12.7456 40.6614 12.7456 41.323 12.3362 41.7309L10.24 43.8208C10.0354 44.0248 9.76727 44.1267 9.49895 44.1267Z" fill="#D1D5DC"/>
<path d="M98.3459 62.447C98.0778 62.447 97.8093 62.3451 97.6049 62.1411C97.1955 61.733 97.1955 61.0713 97.6049 60.6634L99.7011 58.5735C100.11 58.1656 100.774 58.1656 101.183 58.5735C101.593 58.9817 101.593 59.6433 101.183 60.0513L99.0869 62.1411C98.8823 62.3451 98.614 62.447 98.3459 62.447Z" fill="#D1D5DC"/>
<defs>
<linearGradient id="paint0_linear_341_7982" x1="24.8664" y1="86.0067" x2="82.5266" y2="26.5534" gradientUnits="userSpaceOnUse">
<stop stop-color="white" stop-opacity="0"/>
<stop offset="1" stop-color="#D1D5DC"/>
</linearGradient>
</defs>
</svg>
