<svg width="131" height="131" viewBox="0 0 131 131" fill="none" xmlns="http://www.w3.org/2000/svg">
<path d="M115.278 93.9018C108.09 72.4527 88.9579 64.2563 106.84 39.7776C125.312 14.4907 90.7894 6.11854 71.73 16.1017C64.7048 19.7815 58.1448 24.2538 51.2245 28.1304C44.1583 32.0888 24.8977 19.5796 23.0183 32.8917C22.157 38.9926 29.242 43.8151 29.5538 50.3175C29.9181 57.9111 23.686 61.0179 18.784 65.2377C11.3289 71.6556 15.2447 91.3336 25.3852 93.4613C30.1789 94.4671 34.5985 90.864 39.1934 89.17C57.5826 82.3901 66.5085 102.695 77.1701 113.584C89.6979 126.378 121.548 115.176 115.278 93.9018Z" fill="url(#paint0_linear_18116_13654)"/>
<path opacity="0.1" d="M97.2757 80.0272C95.4272 79.9403 93.9014 81.4128 93.9014 83.2416V82.0661C93.9014 80.3643 92.618 78.8887 90.9207 78.7656C90.347 78.724 89.8043 78.8362 89.3242 79.0603V26.3828C89.3242 22.9202 86.5173 20.1133 83.0547 20.1133H47.9453C44.4827 20.1133 41.6758 22.9202 41.6758 26.3828V100.363C41.6758 103.826 44.4827 106.633 47.9453 106.633H79.1672C79.387 107.524 79.5017 108.442 79.5017 109.369V116.563C79.5017 117.14 79.9697 117.608 80.5467 117.608H96.1864C96.7634 117.608 97.2313 117.14 97.2313 116.563V107.966C97.2313 106.593 97.6082 105.237 98.3686 104.093C99.6533 102.161 100.338 99.8931 100.338 97.5738V83.3319C100.337 81.599 99.0052 80.1087 97.2757 80.0272Z" fill="#4A5565"/>
<path d="M83.0547 101.621H47.9453C44.4827 101.621 41.6758 98.8142 41.6758 95.3516V21.3711C41.6758 17.9084 44.4827 15.1016 47.9453 15.1016H54.7845L58.6046 16.1465H72.3959L76.2159 15.1016H83.0547C86.5173 15.1016 89.3242 17.9084 89.3242 21.3711V95.3516C89.3242 98.814 86.5173 101.621 83.0547 101.621Z" fill="#D1D5DC"/>
<path d="M84.4715 30.9128V65.46L83.1445 66.5049H47.8556L46.5283 65.46V30.9128C46.5283 30.313 47.0132 29.8281 47.6129 29.8281H83.3869C83.9867 29.8281 84.4715 30.313 84.4715 30.9128Z" fill="white"/>
<path d="M46.5281 65.4609V68.4227C46.5281 69.0216 47.0135 69.5071 47.6125 69.5071H83.3877C83.9866 69.5071 84.4721 69.0216 84.4721 68.4227V65.4609H46.5281Z" fill="#D1D5DC"/>
<path d="M61.9347 81.4886H48.1614C47.2381 81.4886 46.4895 80.74 46.4895 79.8167V75.3516C46.4895 74.4283 47.2381 73.6797 48.1614 73.6797H61.9347C62.858 73.6797 63.6066 74.4283 63.6066 75.3516V79.8167C63.6066 80.74 62.858 81.4886 61.9347 81.4886Z" fill="white"/>
<path d="M82.8385 81.4886H69.0652C68.1419 81.4886 67.3933 80.74 67.3933 79.8167V75.3516C67.3933 74.4283 68.1419 73.6797 69.0652 73.6797H82.8385C83.7618 73.6797 84.5104 74.4283 84.5104 75.3516V79.8167C84.5104 80.74 83.762 81.4886 82.8385 81.4886Z" fill="white"/>
<path d="M80.5757 26H70.0046C69.4276 26 68.9597 25.5321 68.9597 24.9551C68.9597 24.3781 69.4276 23.9102 70.0046 23.9102H80.5757C81.1527 23.9102 81.6206 24.3781 81.6206 24.9551C81.6206 25.5321 81.1529 26 80.5757 26Z" fill="white"/>
<path d="M54.7844 15.1016L56.2314 19.3329C56.5783 20.3475 57.5322 21.0292 58.6042 21.0292H72.3955C73.4678 21.0292 74.4214 20.3475 74.7683 19.3329L76.2154 15.1016H54.7844Z" fill="white"/>
<path d="M49.7217 26C50.2988 26 50.7666 25.5322 50.7666 24.9551C50.7666 24.378 50.2988 23.9102 49.7217 23.9102C49.1446 23.9102 48.6768 24.378 48.6768 24.9551C48.6768 25.5322 49.1446 26 49.7217 26Z" fill="white"/>
<path d="M53.0205 26C53.5976 26 54.0654 25.5322 54.0654 24.9551C54.0654 24.378 53.5976 23.9102 53.0205 23.9102C52.4434 23.9102 51.9756 24.378 51.9756 24.9551C51.9756 25.5322 52.4434 26 53.0205 26Z" fill="white"/>
<path d="M56.3193 26C56.8964 26 57.3643 25.5322 57.3643 24.9551C57.3643 24.378 56.8964 23.9102 56.3193 23.9102C55.7422 23.9102 55.2744 24.378 55.2744 24.9551C55.2744 25.5322 55.7422 26 56.3193 26Z" fill="white"/>
<path d="M72.6661 95.2363C72.6661 95.8131 72.198 96.2812 71.6212 96.2812H59.3789C58.8021 96.2812 58.334 95.8131 58.334 95.2363C58.334 94.6574 58.8021 94.1914 59.3789 94.1914H71.6212C72.198 94.1914 72.6661 94.6574 72.6661 95.2363Z" fill="white"/>
<path d="M100.337 78.3191V92.5609C100.337 94.8867 99.649 97.1609 98.3577 99.0965C97.6073 100.221 97.2313 101.555 97.2313 102.907V105.346L96.1864 106.39H80.5466L79.5017 105.346V104.356C79.5017 102.043 78.7991 99.783 77.4865 97.876C76.6562 96.6698 75.5776 95.6852 74.3446 94.972C71.2896 93.2086 69.4819 89.8769 69.4819 86.3503V80.4037C69.4819 78.7485 70.6119 77.308 72.2192 76.9124L74.591 76.3287L74.5891 63.57C74.5891 61.8243 75.9479 60.3378 77.6919 60.2756C79.5226 60.2099 81.0271 61.6753 81.0271 63.4937V76.3694C81.0342 74.544 82.5581 73.075 84.4049 73.1638C86.1346 73.2472 87.4634 74.7375 87.4634 76.4689V76.9621C87.4634 75.1331 88.989 73.6606 90.8376 73.7475C92.5691 73.829 93.9013 75.3212 93.9013 77.0543V78.2286C93.9013 76.3995 95.4269 74.9272 97.2756 75.014C99.0052 75.0957 100.337 76.586 100.337 78.3191Z" fill="white"/>
<path d="M79.502 105.344H97.2309V112.593H79.502V105.344Z" fill="#D1D5DC"/>
<path d="M52.3189 100.574H47.9453C45.0645 100.574 42.7207 98.2305 42.7207 95.3496V21.3691C42.7207 18.4883 45.0645 16.1445 47.9453 16.1445H83.0547C85.9355 16.1445 88.2793 18.4883 88.2793 21.3691V68.1361C88.2793 68.7133 88.7472 69.181 89.3242 69.181C89.9012 69.181 90.3691 68.7133 90.3691 68.1361V21.3691C90.3691 17.336 87.0879 14.0547 83.0547 14.0547H47.9453C43.9121 14.0547 40.6309 17.336 40.6309 21.3691V95.3496C40.6309 99.3828 43.9121 102.664 47.9453 102.664H52.3189C52.8959 102.664 53.3639 102.196 53.3639 101.619C53.3639 101.042 52.8959 100.574 52.3189 100.574Z" fill="#4A5565"/>
<path d="M97.3241 73.9668C96.2518 73.9171 95.2284 74.2573 94.4112 74.9319C93.7174 73.6554 92.4131 72.7727 90.8871 72.701C89.7093 72.645 88.5912 73.0623 87.74 73.8744C87.7273 73.8866 87.7148 73.8987 87.7022 73.911C86.9687 72.8747 85.7977 72.1819 84.4548 72.1173C83.6036 72.0763 82.7836 72.282 82.0728 72.7052V70.5489H83.3869C84.5614 70.5489 85.5164 69.5938 85.5164 68.4193V30.9108C85.5164 29.7363 84.5614 28.7812 83.3869 28.7812H47.6129C46.4385 28.7812 45.4834 29.7363 45.4834 30.9108V68.4193C45.4834 69.5938 46.4385 70.5489 47.6129 70.5489H73.5454L73.5456 75.506L71.9701 75.8934C69.8903 76.4054 68.4376 78.2591 68.4376 80.401V86.3475C68.4376 90.3048 70.5007 93.9549 73.8217 95.8736C74.9306 96.5141 75.9004 97.4105 76.6267 98.4654C77.0833 99.1287 77.457 99.8353 77.7458 100.572H58.492C57.915 100.572 57.4471 101.04 57.4471 101.617C57.4471 102.195 57.915 102.662 58.492 102.662H78.3184C78.4095 103.218 78.4574 103.783 78.4574 104.353V112.591C78.4574 113.169 78.9253 113.636 79.5023 113.636C80.0793 113.636 80.5472 113.169 80.5472 112.591V104.353C80.5472 101.816 79.7867 99.3705 78.3483 97.2805C77.4471 95.9712 76.2434 94.859 74.8672 94.064C72.1903 92.5175 70.5277 89.5606 70.5277 86.3472V80.4008C70.5277 79.2232 71.3264 78.204 72.4698 77.9227L73.5458 77.6579V83.8908C73.5458 84.4681 74.0137 84.9358 74.5907 84.9358C75.1677 84.9358 75.6357 84.4681 75.6357 83.8908L75.6352 63.5661C75.6352 62.3673 76.5746 61.3586 77.7293 61.3172C78.3288 61.295 78.8904 61.5118 79.3184 61.9245C79.7472 62.3381 79.9834 62.8944 79.9834 63.49V76.3651C79.9834 76.9417 80.4502 77.4092 81.0266 77.41H81.0283C81.604 77.41 82.0713 76.9442 82.0732 76.3685C82.0751 75.7693 82.3154 75.2119 82.7501 74.799C83.184 74.3867 83.7526 74.1781 84.3549 74.2044C85.4935 74.2592 86.4197 75.2736 86.4197 76.4658V76.959C86.4197 77.5363 86.8876 78.004 87.4646 78.004C88.0416 78.004 88.5095 77.5363 88.5095 76.959C88.5095 76.359 88.7488 75.8004 89.1831 75.3862C89.6171 74.9722 90.1879 74.7612 90.7895 74.7881C91.9293 74.8418 92.8566 75.8564 92.8566 77.05V78.2247C92.8566 78.8019 93.3245 79.2696 93.9015 79.2696C94.4785 79.2696 94.9464 78.8019 94.9464 78.2247C94.9464 77.6247 95.1857 77.066 95.62 76.6518C96.0541 76.238 96.6244 76.0259 97.2265 76.0539C98.3663 76.1076 99.2935 77.1223 99.2935 78.3158V92.5581C99.2935 94.6847 98.6695 96.7436 97.489 98.5126C96.6369 99.7897 96.1868 101.308 96.1868 102.904V112.591C96.1868 113.168 96.6547 113.636 97.2317 113.636C97.8087 113.636 98.2766 113.168 98.2766 112.591V102.904C98.2766 101.722 98.6053 100.605 99.2275 99.6727C100.638 97.5591 101.383 95.0989 101.383 92.5581V78.3158C101.383 75.9843 99.5997 74.0738 97.3241 73.9668ZM80.7692 60.4209C79.929 59.6104 78.8229 59.1883 77.6542 59.2288C75.3884 59.3099 73.545 61.2555 73.545 63.5663L73.5452 68.459H47.6129C47.59 68.459 47.5732 68.4423 47.5732 68.4193V30.9108C47.5732 30.8878 47.59 30.8711 47.6129 30.8711H83.3869C83.4099 30.8711 83.4266 30.8878 83.4266 30.9108V68.4193C83.4266 68.4423 83.4099 68.459 83.3869 68.459H82.0728V63.4904C82.0728 62.3222 81.6099 61.2321 80.7692 60.4209Z" fill="#4A5565"/>
<path d="M58.5437 85.6495L56.0336 88.96C55.83 89.2284 55.4046 89.1243 55.3477 88.7924L53.6953 79.1263C53.6405 78.8059 53.9828 78.5662 54.2652 78.7273L62.7832 83.586C63.0757 83.7528 63.0279 84.1883 62.7061 84.2878L58.7366 85.5143C58.6599 85.5381 58.5924 85.5854 58.5437 85.6495Z" fill="#4A5565"/>
<path d="M70.244 43.5039C70.821 43.5039 71.2889 43.0362 71.2889 42.459C71.2889 41.8818 70.821 41.4141 70.244 41.4141H69.7959C69.2189 41.4141 68.751 41.8818 68.751 42.459C68.751 43.0362 69.2189 43.5039 69.7959 43.5039H70.244Z" fill="#D1D5DC"/>
<path d="M74.0375 52.3984H71.0068C70.4298 52.3984 69.9619 52.8661 69.9619 53.4434C69.9619 54.0206 70.4298 54.4883 71.0068 54.4883H72.9926V56.6858C72.9926 57.263 73.4605 57.7307 74.0375 57.7307C74.6145 57.7307 75.0824 57.263 75.0824 56.6858V53.4434C75.0824 52.8664 74.6145 52.3984 74.0375 52.3984Z" fill="#D1D5DC"/>
<path d="M63.416 33.918H52.6707C52.0936 33.918 51.6257 34.3857 51.6257 34.9629C51.6257 35.2517 51.743 35.5129 51.9321 35.7021L55.6311 39.4011V41.5992C55.6311 42.1764 56.099 42.6441 56.676 42.6441H59.6971C60.2741 42.6441 60.7421 42.1764 60.7421 41.5992V38.9263C60.7421 38.3491 60.2741 37.8814 59.6971 37.8814C59.1201 37.8814 58.6522 38.3491 58.6522 38.9263V40.5543H57.721V38.9683C57.721 38.6912 57.6108 38.4253 57.415 38.2295L55.1933 36.0078H62.3711V44.6631H53.7156V41.0471C53.7156 40.4698 53.2477 40.0021 52.6707 40.0021C52.0936 40.0021 51.6257 40.4698 51.6257 41.0471V45.708C51.6257 46.2852 52.0936 46.753 52.6707 46.753H63.416C63.993 46.753 64.4609 46.2852 64.4609 45.708V34.9629C64.4609 34.3857 63.9932 33.918 63.416 33.918Z" fill="#D1D5DC"/>
<path d="M78.3291 33.918H67.5837C67.0067 33.918 66.5388 34.3857 66.5388 34.9629V38.8899C66.5388 39.4671 67.0067 39.9348 67.5837 39.9348H72.8407V41.9056C72.8407 42.4828 73.3087 42.9505 73.8857 42.9505C74.4627 42.9505 74.9306 42.4828 74.9306 41.9056V38.8899C74.9306 38.3127 74.4627 37.845 73.8857 37.845H68.6287V36.0078H77.2842V44.6631H72.9565C72.3795 44.6631 71.9116 45.1308 71.9116 45.708C71.9116 46.2852 72.3795 46.753 72.9565 46.753H78.3291C78.9061 46.753 79.374 46.2852 79.374 45.708V34.9629C79.374 34.3857 78.9061 33.918 78.3291 33.918Z" fill="#D1D5DC"/>
<path d="M63.416 48.5391H52.6707C52.0936 48.5391 51.6257 49.0068 51.6257 49.584V60.3291C51.6257 60.9063 52.0936 61.374 52.6707 61.374H63.416C63.993 61.374 64.4609 60.9063 64.4609 60.3291V49.584C64.4609 49.0068 63.9932 48.5391 63.416 48.5391ZM62.3711 59.2842H53.7156V50.6289H62.3711V59.2842Z" fill="#D1D5DC"/>
<path d="M56.3896 57.6555H59.6975C60.2745 57.6555 60.7424 57.1878 60.7424 56.6105V53.3027C60.7424 52.7255 60.2745 52.2578 59.6975 52.2578C59.1204 52.2578 58.6525 52.7255 58.6525 53.3027V55.5656H57.4346V53.3027C57.4346 52.7255 56.9667 52.2578 56.3896 52.2578C55.8126 52.2578 55.3447 52.7255 55.3447 53.3027V56.6105C55.3447 57.1875 55.8126 57.6555 56.3896 57.6555Z" fill="#D1D5DC"/>
<path d="M78.3291 48.5391H67.5837C67.0067 48.5391 66.5388 49.0068 66.5388 49.584V60.3291C66.5388 60.9063 67.0067 61.374 67.5837 61.374H71.8884C72.4654 61.374 72.9333 60.9063 72.9333 60.3291C72.9333 59.7519 72.4654 59.2842 71.8884 59.2842H68.6287V50.6289H77.2842V56.636C77.2842 57.2132 77.7521 57.6809 78.3291 57.6809C78.9061 57.6809 79.374 57.2132 79.374 56.636V49.584C79.374 49.0068 78.9061 48.5391 78.3291 48.5391Z" fill="#D1D5DC"/>
<path d="M65.5001 54.8879C69.3783 54.8879 72.5222 51.744 72.5222 47.8658C72.5222 43.9876 69.3783 40.8438 65.5001 40.8438C61.6219 40.8438 58.478 43.9876 58.478 47.8658C58.478 51.744 61.6219 54.8879 65.5001 54.8879Z" fill="#D1D5DC"/>
<path d="M68.7369 49.1966C68.7369 47.8861 67.6707 46.8198 66.3601 46.8198H64.64C64.4818 46.8198 64.353 46.6911 64.353 46.5329C64.353 46.3745 64.4818 46.2457 64.64 46.2457H67.408C67.985 46.2457 68.4529 45.778 68.4529 45.2008C68.4529 44.6236 67.985 44.1559 67.408 44.1559H66.5396C66.5114 43.604 66.059 43.1641 65.5001 43.1641C64.9382 43.1641 64.4832 43.6088 64.4596 44.1651C63.2333 44.2579 62.2632 45.2832 62.2632 46.5329C62.2632 47.8434 63.3294 48.9097 64.64 48.9097H66.3601C66.5183 48.9097 66.6471 49.0384 66.6471 49.1966C66.6471 49.3548 66.5183 49.4835 66.3601 49.4835H63.5921C63.0151 49.4835 62.5472 49.9513 62.5472 50.5285C62.5472 51.1057 63.0151 51.5734 63.5921 51.5734H64.4604C64.4887 52.1253 64.9411 52.5652 65.4999 52.5652C66.0619 52.5652 66.5169 52.1205 66.5405 51.5642C67.7668 51.4716 68.7369 50.4463 68.7369 49.1966Z" fill="white"/>
<path d="M98.4851 58.084C97.9081 58.084 97.4402 57.6163 97.4402 57.0391C97.4402 56.4054 96.9246 55.8896 96.2908 55.8896C95.7138 55.8896 95.2458 55.4219 95.2458 54.8447C95.2458 54.2675 95.7138 53.7998 96.2908 53.7998C96.9246 53.7998 97.4402 53.284 97.4402 52.6504C97.4402 52.0732 97.9081 51.6055 98.4851 51.6055C99.0621 51.6055 99.53 52.0732 99.53 52.6504C99.53 53.284 100.046 53.7998 100.679 53.7998C101.256 53.7998 101.724 54.2675 101.724 54.8447C101.724 55.4219 101.256 55.8896 100.679 55.8896C100.046 55.8896 99.53 56.4054 99.53 57.0391C99.53 57.6161 99.0623 58.084 98.4851 58.084Z" fill="#D1D5DC"/>
<path d="M33.9846 87.0605C33.4076 87.0605 32.9397 86.5928 32.9397 86.0156C32.9397 85.382 32.4241 84.8662 31.7903 84.8662C31.2133 84.8662 30.7454 84.3985 30.7454 83.8213C30.7454 83.2441 31.2133 82.7764 31.7903 82.7764C32.4241 82.7764 32.9397 82.2606 32.9397 81.627C32.9397 81.0497 33.4076 80.582 33.9846 80.582C34.5616 80.582 35.0295 81.0497 35.0295 81.627C35.0295 82.2606 35.5451 82.7764 36.179 82.7764C36.756 82.7764 37.2239 83.2441 37.2239 83.8213C37.2239 84.3985 36.756 84.8662 36.179 84.8662C35.5451 84.8662 35.0295 85.382 35.0295 86.0156C35.0295 86.5928 34.5616 87.0605 33.9846 87.0605Z" fill="#D1D5DC"/>
<path d="M45.5819 112.209C45.3144 112.209 45.0472 112.107 44.843 111.903L42.6486 109.708C42.2405 109.3 42.2405 108.639 42.6486 108.231L44.843 106.037C45.2511 105.628 45.9126 105.628 46.3207 106.037L48.515 108.231C48.9232 108.639 48.9232 109.3 48.515 109.708L46.3207 111.903C46.1167 112.107 45.8494 112.209 45.5819 112.209ZM44.8653 108.97L45.5819 109.686L46.2986 108.97L45.5819 108.253L44.8653 108.97Z" fill="#D1D5DC"/>
<path d="M101.173 68.9472C100.906 68.9472 100.639 68.8452 100.435 68.641L98.2402 66.4467C97.832 66.0388 97.832 65.3771 98.2402 64.9692L100.435 62.7749C100.843 62.3667 101.504 62.3667 101.912 62.7749L104.107 64.9692C104.515 65.3771 104.515 66.0388 104.107 66.4467L101.912 68.641C101.708 68.8452 101.441 68.9472 101.173 68.9472ZM100.457 65.708L101.174 66.4246L101.89 65.708L101.174 64.9913L100.457 65.708Z" fill="#D1D5DC"/>
<path d="M34.3534 36.8144C34.0859 36.8144 33.8186 36.7124 33.6145 36.5082L31.4201 34.3139C31.012 33.906 31.012 33.2443 31.4201 32.8364L33.6145 30.642C34.0226 30.2339 34.684 30.2339 35.0922 30.642L37.2865 32.8364C37.6947 33.2443 37.6947 33.906 37.2865 34.3139L35.0922 36.5082C34.8882 36.7124 34.6209 36.8144 34.3534 36.8144ZM33.637 33.5751L34.3536 34.2918L35.0702 33.5751L34.3536 32.8585L33.637 33.5751Z" fill="#D1D5DC"/>
<defs>
<linearGradient id="paint0_linear_18116_13654" x1="38.4255" y1="98.0067" x2="96.0941" y2="41.7825" gradientUnits="userSpaceOnUse">
<stop stop-color="white" stop-opacity="0"/>
<stop offset="1" stop-color="#D1D5DC"/>
</linearGradient>
</defs>
</svg>
