<svg width="16" height="16" viewBox="0 0 16 16" fill="none" xmlns="http://www.w3.org/2000/svg">
<g clip-path="url(#clip0_255_5905)">
<path d="M8 16C12.4183 16 16 12.4183 16 8C16 3.58172 12.4183 0 8 0C3.58172 0 0 3.58172 0 8C0 12.4183 3.58172 16 8 16Z" fill="white"/>
<path d="M8.00013 -0.000488281C4.82845 -0.000488281 2.08795 1.84529 0.793945 4.52126H15.2063C13.9123 1.84529 11.1718 -0.000488281 8.00013 -0.000488281Z" fill="black"/>
<path d="M8.00013 16C4.82845 16 2.08795 14.1542 0.793945 11.4783H15.2063C13.9123 14.1542 11.1718 16 8.00013 16Z" fill="#496E2D"/>
<path d="M15.6222 5.5647H0.377781C0.132719 6.33248 0 7.15045 0 7.99948C0 8.84851 0.132719 9.66648 0.377781 10.4343H15.6222C15.8673 9.66648 16 8.84851 16 7.99948C16 7.15045 15.8673 6.33248 15.6222 5.5647Z" fill="#A2001D"/>
<path d="M10.4912 3.69668L9.54381 3.2594L8.00012 6.75474L6.45644 3.2594L5.50903 3.69668L7.42553 7.99978L5.50903 12.3029L6.45644 12.7401L8.00012 9.24481L9.54381 12.7401L10.4912 12.3029L8.57472 7.99978L10.4912 3.69668Z" fill="white"/>
<path d="M8.64363 4.10881C8.27688 3.70828 8.00016 3.47803 8.00016 3.47803C8.00016 3.47803 7.72344 3.70825 7.35669 4.10881V11.8907C7.72344 12.2913 8.00016 12.5215 8.00016 12.5215C8.00016 12.5215 8.27688 12.2913 8.64363 11.8907V4.10881Z" fill="white"/>
<path d="M6.26099 5.60151V10.3988C6.64855 11.0855 7.12289 11.6483 7.47839 12.0215V3.97876C7.12289 4.35192 6.64852 4.91482 6.26099 5.60151Z" fill="#A2001D"/>
<path d="M9.73914 5.60187C9.35154 4.91516 8.87723 4.35228 8.52173 3.97913V12.0219C8.8772 11.6487 9.35154 11.0858 9.73914 10.3991V5.60187Z" fill="#A2001D"/>
<path d="M9.73901 5.60059V10.3978C10.1314 9.70255 10.4347 8.8804 10.4347 7.99924C10.4347 7.11809 10.1314 6.2959 9.73901 5.60059Z" fill="black"/>
<path d="M6.26084 5.60059V10.3978C5.8685 9.70255 5.56519 8.8804 5.56519 7.99924C5.56519 7.11809 5.8685 6.2959 6.26084 5.60059Z" fill="black"/>
</g>
<defs>
<clipPath id="clip0_255_5905">
<rect width="16" height="16" fill="white"/>
</clipPath>
</defs>
</svg>
