<svg width="16" height="16" viewBox="0 0 16 16" fill="none" xmlns="http://www.w3.org/2000/svg">
<g clip-path="url(#clip0_255_13322)">
<path d="M8 16C12.4183 16 16 12.4183 16 8C16 3.58172 12.4183 0 8 0C3.58172 0 0 3.58172 0 8C0 12.4183 3.58172 16 8 16Z" fill="white"/>
<path d="M-0.000244141 8.00018C-0.000244141 11.4399 2.17076 14.3722 5.21716 15.5026V0.497803C2.17076 1.62812 -0.000244141 4.56049 -0.000244141 8.00018Z" fill="#007A55"/>
<path d="M15.9999 8.00018C15.9999 4.56049 13.8289 1.62812 10.7825 0.497803V15.5026C13.8289 14.3722 15.9999 11.4399 15.9999 8.00018Z" fill="#007A55"/>
</g>
<defs>
<clipPath id="clip0_255_13322">
<rect width="16" height="16" fill="white"/>
</clipPath>
</defs>
</svg>
