<svg width="20" height="20" viewBox="0 0 20 20" fill="none" xmlns="http://www.w3.org/2000/svg">
<path d="M3.33325 15.5375V6.71123C3.33325 4.33289 3.33325 3.14373 4.06548 2.40487C4.79772 1.66602 5.97623 1.66602 8.33325 1.66602H11.6666C14.0236 1.66602 15.2021 1.66602 15.9344 2.40487C16.6666 3.14373 16.6666 4.33289 16.6666 6.71123V15.5375C16.6666 16.7972 16.6666 17.4271 16.2816 17.675C15.6525 18.0802 14.68 17.2305 14.1909 16.9221C13.7867 16.6672 13.5846 16.5398 13.3604 16.5324C13.118 16.5244 12.9124 16.6467 12.4756 16.9221L10.8832 17.9263C10.4537 18.1972 10.2389 18.3327 9.99992 18.3327C9.76092 18.3327 9.54613 18.1972 9.11659 17.9263L7.52419 16.9221C7.12004 16.6672 6.91797 16.5398 6.6937 16.5324C6.45135 16.5244 6.24569 16.6467 5.80898 16.9221C5.31988 17.2305 4.34731 18.0802 3.71821 17.675C3.33325 17.4271 3.33325 16.7972 3.33325 15.5375Z" stroke="#4A5565" stroke-width="1.5" stroke-linecap="round" stroke-linejoin="round"/>
<path d="M13.3333 5L6.66659 5" stroke="#4A5565" stroke-width="1.5" stroke-linecap="round" stroke-linejoin="round"/>
<path d="M8.33325 8.33398H6.66659" stroke="#4A5565" stroke-width="1.5" stroke-linecap="round" stroke-linejoin="round"/>
<path d="M12.0833 8.22917C11.3929 8.22917 10.8333 8.71886 10.8333 9.32292C10.8333 9.92698 11.3929 10.4167 12.0833 10.4167C12.7736 10.4167 13.3333 10.9064 13.3333 11.5104C13.3333 12.1145 12.7736 12.6042 12.0833 12.6042M12.0833 8.22917C12.6275 8.22917 13.0905 8.53352 13.2621 8.95833M12.0833 8.22917V7.5M12.0833 12.6042C11.539 12.6042 11.076 12.2998 10.9044 11.875M12.0833 12.6042V13.3333" stroke="#4A5565" stroke-width="1.5" stroke-linecap="round"/>
</svg>
