<svg width="20" height="20" viewBox="0 0 20 20" fill="none" xmlns="http://www.w3.org/2000/svg">
<path d="M11.7129 1.04297C12.8522 1.04295 13.7713 1.04257 14.4941 1.14062C15.2451 1.24253 15.8766 1.46102 16.3779 1.9668C16.8785 2.4719 17.0937 3.10711 17.1943 3.8623C17.2914 4.59047 17.292 5.51662 17.292 6.66699V15.585C17.292 16.1755 17.2914 16.684 17.2373 17.0732C17.1818 17.4723 17.0479 17.9266 16.6201 18.2021C15.9883 18.609 15.288 18.3279 14.8945 18.1221C14.6692 18.0042 14.4569 17.8639 14.2812 17.7432C14.0689 17.6092 13.5251 17.2439 13.4287 17.1953C13.3416 17.1476 13.2778 17.1708 13.2568 17.1885C13.1626 17.2327 13.0367 17.3089 12.8096 17.4521L11.1943 18.4707C10.9989 18.594 10.8134 18.7106 10.6465 18.793C10.4601 18.8849 10.2494 18.959 10 18.959C9.75063 18.959 9.53992 18.8849 9.35352 18.793C9.18654 18.7106 9.00117 18.594 8.80566 18.4707L7.19043 17.4521C6.97841 17.3184 6.8568 17.243 6.76172 17.1953C6.66768 17.1435 6.60792 17.1691 6.58984 17.1885C6.49562 17.2327 6.36972 17.3089 6.14258 17.4521C5.96694 17.5729 5.33076 18.0042 5.10547 18.1221C4.71196 18.3279 4.01168 18.6091 3.37988 18.2021C2.95207 17.9266 2.81821 17.4723 2.7627 17.0732C2.70857 16.684 2.70797 16.1755 2.70801 15.585V6.66699C2.70799 5.51662 2.70864 4.59047 2.80566 3.8623C2.9063 3.10711 3.12149 2.4719 3.62207 1.9668C4.12336 1.46102 4.7549 1.24253 5.50586 1.14062C6.22867 1.04257 7.14783 1.04295 8.28711 1.04297H11.7129ZM12.083 6.87598C11.738 6.87615 11.458 7.15591 11.458 7.50098V7.70508C10.7632 7.93188 10.208 8.5284 10.208 9.32422C10.2082 10.3489 11.1287 11.0428 12.083 11.043C12.5092 11.043 12.708 11.3286 12.708 11.5117C12.7078 11.6948 12.5089 11.9805 12.083 11.9805C11.7612 11.9803 11.5489 11.8013 11.4844 11.6416C11.3551 11.3216 10.9899 11.1676 10.6699 11.2969C10.3502 11.4263 10.196 11.7905 10.3252 12.1104C10.5256 12.6061 10.9503 12.9677 11.458 13.1318V13.334C11.458 13.6791 11.738 13.9588 12.083 13.959C12.4282 13.959 12.708 13.6792 12.708 13.334V13.1299C13.4029 12.9032 13.9579 12.3075 13.958 11.5117C13.958 10.4867 13.0375 9.79297 12.083 9.79297C11.6573 9.79282 11.4582 9.50729 11.458 9.32422C11.458 9.14117 11.6571 8.85561 12.083 8.85547C12.405 8.85547 12.618 9.0336 12.6826 9.19336C12.8119 9.51333 13.1761 9.66816 13.4961 9.53906C13.816 9.40983 13.9708 9.04556 13.8418 8.72559C13.6414 8.22956 13.216 7.86727 12.708 7.70312V7.50098C12.708 7.1558 12.4282 6.87598 12.083 6.87598ZM6.66699 7.70898C6.32192 7.70898 6.04217 7.98896 6.04199 8.33398C6.04199 8.67916 6.32181 8.95898 6.66699 8.95898H8.33301C8.67819 8.95898 8.95801 8.67916 8.95801 8.33398C8.95783 7.98896 8.67808 7.70898 8.33301 7.70898H6.66699ZM6.66699 4.37598C6.32181 4.37598 6.04199 4.6558 6.04199 5.00098C6.04199 5.34615 6.32181 5.62598 6.66699 5.62598H13.333C13.6782 5.62598 13.958 5.34615 13.958 5.00098C13.958 4.6558 13.6782 4.37598 13.333 4.37598H6.66699Z" fill="#1447E6"/>
</svg>
