<svg width="131" height="131" viewBox="0 0 131 131" fill="none" xmlns="http://www.w3.org/2000/svg">
<path d="M106.878 73.9201C106.878 48.9385 124.196 43.6274 117.433 37.8208C113.231 34.2127 92.3693 38.3317 81.8595 39.4521C78.4882 39.8116 77.0628 37.4559 79.771 35.392C86.5767 30.2054 100.241 29.4913 101.482 20.8755C103.233 8.71179 71.3908 8.4142 40.7567 23.9568C14.9632 37.0434 -0.975793 64.934 25.9773 69.4583C41.2019 72.0137 67.9242 48.1135 81.5965 58.836C95.6149 69.8302 69.4811 83.9467 63.5034 101.515C54.4372 128.16 111.655 121.369 113.185 101.068C113.679 94.5125 106.878 80.4916 106.878 73.9201Z" fill="url(#paint0_linear_53_13564)"/>
<path opacity="0.1" d="M72.1037 69.4565C81.2698 66.6375 87.8918 58.5287 87.8918 48.9643V33.1977H89.4852C90.7122 33.1977 91.7068 32.2621 91.7068 31.1079V27.9746C91.7068 26.8204 90.7122 25.8848 89.4852 25.8848H40.4667C39.2397 25.8848 38.2451 26.8204 38.2451 27.9746V31.1079C38.2451 32.2621 39.2397 33.1977 40.4667 33.1977H42.06V48.9643C42.06 58.5287 48.682 66.6375 57.8482 69.4565C58.9279 69.7886 58.9279 71.2435 57.8482 71.5756C55.7394 72.2243 53.7675 73.1557 51.9776 74.3177C49.6986 72.6379 46.8301 71.6337 43.7103 71.6337C36.2992 71.6337 30.291 77.2853 30.291 84.257C30.291 90.7025 35.4278 96.0159 42.0598 96.7816V107.834H40.4665C39.2395 107.834 38.2449 108.77 38.2449 109.924V113.057C38.2449 114.212 39.2395 115.147 40.4665 115.147H89.4852C90.7122 115.147 91.7068 114.212 91.7068 113.057V109.924C91.7068 108.77 90.7122 107.834 89.4852 107.834H87.8918V92.0677C87.8918 82.5034 81.2698 74.3946 72.1037 71.5756C71.024 71.2435 71.024 69.7886 72.1037 69.4565Z" fill="#1447E6"/>
<path d="M87.8916 43.9484V26.3193H42.0596V43.9484C42.0596 53.5128 48.6815 61.6216 57.8477 64.4405C58.9274 64.7726 58.9274 66.2276 57.8477 66.5596C48.6813 69.3786 42.0596 77.4874 42.0596 87.0518V104.681H87.8916V87.0518C87.8916 77.4874 81.2696 69.3786 72.1034 66.5596C71.0237 66.2276 71.0237 64.7726 72.1034 64.4405C81.2696 61.6213 87.8916 53.5128 87.8916 43.9484Z" fill="white"/>
<path d="M68.0881 74.5617C67.4134 77.9159 67.41 84.7595 67.5009 89.4017C67.5209 90.4215 68.2627 91.2984 69.3117 91.5563C71.2728 92.038 73.5943 92.746 75.5994 93.7339C78.603 95.2156 84.377 95.3953 87.8916 95.3494V104.681H42.0596V95.3494C45.5742 95.3953 51.3482 95.2156 54.3518 93.7339C56.3568 92.7458 58.6784 92.038 60.6394 91.5563C61.6885 91.2986 62.4305 90.4215 62.4503 89.4017C62.5411 84.7595 62.5378 77.9159 61.8631 74.5617C61.1202 70.87 60.8805 67.5804 59.8989 65.8063C59.4686 65.0285 58.1776 64.542 57.8486 64.4406C48.6822 61.6214 42.0596 53.5128 42.0596 43.9476V39.5213C45.2831 38.4911 53.1388 36.8777 65.0333 40.1567C73.7443 42.5579 82.102 40.8609 87.8916 38.8275V43.9476C87.8916 53.5128 81.2689 61.6214 72.1025 64.4406C71.7722 64.5422 70.4805 65.0279 70.0493 65.8063C69.0709 67.5727 68.8359 70.8468 68.0881 74.5617Z" fill="#51A2FF"/>
<path d="M42.0586 26.3203H87.8906V33.2878H42.0586V26.3203Z" fill="#1447E6"/>
<path d="M42.0586 97.7129H87.8906V104.68H42.0586V97.7129Z" fill="#1447E6"/>
<path d="M89.4842 28.1821H40.4658C39.2388 28.1821 38.2441 27.2465 38.2441 26.0923V22.959C38.2441 21.8048 39.2388 20.8691 40.4658 20.8691H89.4845C90.7114 20.8691 91.7061 21.8048 91.7061 22.959V26.0923C91.7058 27.2465 90.7112 28.1821 89.4842 28.1821Z" fill="#51A2FF"/>
<path d="M89.4842 110.131H40.4658C39.2388 110.131 38.2441 109.196 38.2441 108.041V104.908C38.2441 103.754 39.2388 102.818 40.4658 102.818H89.4845C90.7114 102.818 91.7061 103.754 91.7061 104.908V108.041C91.7058 109.196 90.7112 110.131 89.4842 110.131Z" fill="#51A2FF"/>
<path d="M43.7103 91.8647C51.1215 91.8647 57.1295 86.2131 57.1295 79.2414C57.1295 72.2698 51.1215 66.6182 43.7103 66.6182C36.299 66.6182 30.291 72.2698 30.291 79.2414C30.291 86.2131 36.299 91.8647 43.7103 91.8647Z" fill="#51A2FF"/>
<path d="M72.4484 65.434C82.3497 62.3891 89.0023 53.7547 89.0023 43.9487V29.227H89.4847C91.3222 29.227 92.8171 27.8208 92.8171 26.0923V22.959C92.8171 21.2305 91.3222 19.8242 89.4847 19.8242H40.4662C38.6287 19.8242 37.1337 21.2305 37.1337 22.959V26.0923C37.1337 27.8208 38.6287 29.227 40.4662 29.227H40.9485V43.9487C40.9485 53.7547 47.6009 62.3889 57.5024 65.4342C57.5282 65.4419 57.5467 65.4475 57.5467 65.5004C57.5467 65.5533 57.5282 65.5589 57.5024 65.5669C55.5283 66.174 53.6875 67.0082 51.9988 68.0249C49.6459 66.4816 46.7894 65.5731 43.7097 65.5731C35.6979 65.5731 29.1797 71.7047 29.1797 79.2411C29.1797 85.8893 34.253 91.4414 40.9485 92.6585V101.774H40.4662C38.6287 101.774 37.1337 103.18 37.1337 104.909V108.042C37.1337 109.77 38.6287 111.177 40.4662 111.177H89.4849C91.3224 111.177 92.8173 109.77 92.8173 108.042V104.909C92.8173 103.18 91.3224 101.774 89.4849 101.774H89.0026V87.0521C89.0026 81.0967 86.5579 75.4748 82.1187 71.222C81.689 70.8101 80.9856 70.804 80.548 71.2086C80.1101 71.613 80.1036 72.2746 80.5337 72.6861C84.5624 76.5459 86.7812 81.6478 86.7812 87.0521V101.774H43.1701V92.8961C43.3496 92.9024 43.5289 92.9091 43.7097 92.9091C51.7216 92.9091 58.2396 86.7775 58.2396 79.2411C58.2396 75.3927 56.5374 71.9131 53.8072 69.4268C55.1704 68.6646 56.6365 68.0318 58.1927 67.5533C59.1498 67.2588 59.7683 66.453 59.7683 65.5004C59.7683 64.5479 59.1498 63.742 58.1927 63.4476C49.2071 60.6842 43.1701 52.8481 43.1701 43.9487V29.227H50.4424C51.0557 29.227 51.5532 28.7593 51.5532 28.1821C51.5532 27.6049 51.0557 27.1372 50.4424 27.1372H40.466C39.8535 27.1372 39.3551 26.6684 39.3551 26.0923V22.959C39.3551 22.3828 39.8535 21.9141 40.466 21.9141H89.4847C90.0972 21.9141 90.5955 22.3828 90.5955 22.959V26.0923C90.5955 26.6684 90.0972 27.1372 89.4847 27.1372H56.9728C56.3594 27.1372 55.862 27.6049 55.862 28.1821C55.862 28.7593 56.3594 29.227 56.9728 29.227H86.7807V43.9487C86.7807 52.8481 80.7437 60.6842 71.7581 63.4476C70.8011 63.742 70.1826 64.5479 70.1826 65.5004C70.1826 66.453 70.8011 67.2588 71.7581 67.5533C73.07 67.9566 74.3534 68.4851 75.5724 69.1242C76.1083 69.4051 76.785 69.2243 77.0834 68.7198C77.3819 68.2157 77.1895 67.5794 76.6537 67.2983C75.3105 66.5944 73.8955 66.0118 72.4484 65.5667C72.4226 65.5589 72.4042 65.5533 72.4042 65.5004C72.4042 65.4475 72.4226 65.4419 72.4484 65.434ZM90.5955 104.909V108.042C90.5955 108.618 90.0972 109.087 89.4847 109.087H40.4662C39.8537 109.087 39.3554 108.618 39.3554 108.042V104.909C39.3554 104.332 39.8537 103.864 40.4662 103.864H89.4849C90.0971 103.864 90.5955 104.332 90.5955 104.909ZM56.0182 79.2411C56.0182 85.6254 50.4966 90.8193 43.71 90.8193C36.9231 90.8193 31.4015 85.6252 31.4015 79.2411C31.4015 72.8571 36.9231 67.663 43.71 67.663C50.4966 67.663 56.0182 72.8569 56.0182 79.2411Z" fill="#1447E6"/>
<path d="M43.7096 88.4311C49.1049 88.4311 53.4787 84.3167 53.4787 79.2414C53.4787 74.1661 49.1049 70.0518 43.7096 70.0518C38.3142 70.0518 33.9404 74.1661 33.9404 79.2414C33.9404 84.3167 38.3142 88.4311 43.7096 88.4311Z" fill="white"/>
<path d="M43.7094 71.5361C44.3228 71.5361 44.8203 72.004 44.8203 72.5811V79.2416C44.8203 79.4295 44.7676 79.6058 44.6752 79.7582C44.4601 80.1133 44.03 80.3381 43.5517 80.2763C42.9967 80.2046 42.5986 79.7317 42.5986 79.2046V72.5811C42.5986 72.004 43.0961 71.5361 43.7094 71.5361Z" fill="#1447E6"/>
<path d="M46.8917 75.7477L44.5713 77.3504C43.7493 77.0194 42.7544 77.1826 42.1019 77.8465C41.3399 78.6217 41.3399 79.8595 42.1008 80.6356C42.941 81.4927 44.3615 81.5217 45.2406 80.7117C45.7345 80.2568 45.9491 79.6359 45.8851 79.0357L48.2065 77.4323C48.701 77.0908 48.8074 76.4369 48.4444 75.9717C48.0814 75.5063 47.386 75.406 46.8917 75.7477Z" fill="#51A2FF"/>
<path d="M77.2182 48.002H75.8852C75.2718 48.002 74.7744 47.534 74.7744 46.957C74.7744 46.38 75.2718 45.9121 75.8852 45.9121H77.2182C77.8316 45.9121 78.329 46.38 78.329 46.957C78.329 47.534 77.8316 48.002 77.2182 48.002Z" fill="white"/>
<path d="M77.2182 54.7373H75.8852C75.2718 54.7373 74.7744 54.2694 74.7744 53.6924C74.7744 53.1154 75.2718 52.6475 75.8852 52.6475H77.2182C77.8316 52.6475 78.329 53.1154 78.329 53.6924C78.329 54.2694 77.8316 54.7373 77.2182 54.7373Z" fill="white"/>
<path d="M55.2328 54.7373H53.8999C53.2865 54.7373 52.7891 54.2694 52.7891 53.6924C52.7891 53.1154 53.2865 52.6475 53.8999 52.6475H55.2328C55.8462 52.6475 56.3437 53.1154 56.3437 53.6924C56.3437 54.2694 55.8465 54.7373 55.2328 54.7373Z" fill="white"/>
<path d="M71.3735 50.0918H70.0405C69.4271 50.0918 68.9297 49.6239 68.9297 49.0469C68.9297 48.4699 69.4271 48.002 70.0405 48.002H71.3735C71.9869 48.002 72.4843 48.4699 72.4843 49.0469C72.4843 49.6239 71.9871 50.0918 71.3735 50.0918Z" fill="white"/>
<path d="M96.4993 51.8681C96.215 51.8681 95.9308 51.7661 95.7138 51.5619L94.4999 50.4201L93.286 51.5619C92.8521 51.9701 92.1489 51.9701 91.7151 51.5619C91.2812 51.154 91.2812 50.4924 91.7151 50.0844L93.7145 48.2036C94.1484 47.7954 94.8515 47.7954 95.2854 48.2036L97.2849 50.0844C97.7188 50.4924 97.7188 51.154 97.2849 51.5619C97.0678 51.7659 96.7835 51.8681 96.4993 51.8681Z" fill="#51A2FF"/>
<path d="M32.2903 26.5107C32.006 26.5107 31.7218 26.4087 31.5048 26.2045L30.2909 25.0626L29.077 26.2045C28.6431 26.6127 27.94 26.6127 27.5061 26.2045C27.0722 25.7966 27.0722 25.1349 27.5061 24.727L29.5055 22.8461C29.9394 22.438 30.6426 22.438 31.0764 22.8461L33.0759 24.727C33.5098 25.1349 33.5098 25.7966 33.0759 26.2045C32.8591 26.4085 32.5747 26.5107 32.2903 26.5107Z" fill="#51A2FF"/>
<path d="M94.0761 39.8416C93.886 39.8416 93.6931 39.7954 93.517 39.6987L93.495 39.6865C92.9653 39.3954 92.7867 38.7555 93.0962 38.2571C93.4057 37.7591 94.0859 37.5911 94.6156 37.882L94.6376 37.8941C95.1672 38.1852 95.3458 38.8251 95.0363 39.3235C94.8299 39.656 94.4583 39.8416 94.0761 39.8416Z" fill="#51A2FF"/>
<path d="M99.6084 42.8466C99.4182 42.8466 99.2254 42.8004 99.0492 42.7036L99.0272 42.6915C98.4976 42.4004 98.3189 41.7605 98.6284 41.2621C98.9379 40.7641 99.6181 40.5958 100.148 40.8869L100.17 40.8991C100.699 41.1902 100.878 41.8301 100.569 42.3285C100.362 42.661 99.9903 42.8466 99.6084 42.8466Z" fill="#51A2FF"/>
<path d="M94.0761 39.8416C93.886 39.8416 93.6931 39.7954 93.517 39.6987L93.495 39.6865C92.9653 39.3954 92.7867 38.7555 93.0962 38.2571C93.4057 37.7591 94.0859 37.5911 94.6156 37.882L94.6376 37.8941C95.1672 38.1852 95.3458 38.8251 95.0363 39.3235C94.8299 39.656 94.4583 39.8416 94.0761 39.8416Z" fill="#51A2FF"/>
<path d="M99.6084 42.8466C99.4182 42.8466 99.2254 42.8004 99.0492 42.7036L99.0272 42.6915C98.4976 42.4004 98.3189 41.7605 98.6284 41.2621C98.9379 40.7641 99.6181 40.5958 100.148 40.8869L100.17 40.8991C100.699 41.1902 100.878 41.8301 100.569 42.3285C100.362 42.661 99.9903 42.8466 99.6084 42.8466Z" fill="#51A2FF"/>
<path d="M99.5886 39.8416C99.2067 39.8416 98.8348 39.656 98.6284 39.3235C98.3189 38.8251 98.4976 38.1852 99.0272 37.8941L99.0492 37.882C99.5788 37.5911 100.259 37.7591 100.569 38.2571C100.878 38.7555 100.699 39.3954 100.17 39.6865L100.148 39.6987C99.9716 39.7954 99.7788 39.8416 99.5886 39.8416Z" fill="#51A2FF"/>
<path d="M94.0564 42.8466C93.6745 42.8466 93.3026 42.661 93.0962 42.3285C92.7867 41.8301 92.9653 41.1902 93.495 40.8991L93.517 40.8869C94.0468 40.5958 94.7271 40.7641 95.0363 41.2621C95.3458 41.7605 95.1672 42.4004 94.6376 42.6915L94.6156 42.7036C94.4396 42.8004 94.2468 42.8466 94.0564 42.8466Z" fill="#51A2FF"/>
<path d="M99.5886 39.8416C99.2067 39.8416 98.8348 39.656 98.6284 39.3235C98.3189 38.8251 98.4976 38.1852 99.0272 37.8941L99.0492 37.882C99.5788 37.5911 100.259 37.7591 100.569 38.2571C100.878 38.7555 100.699 39.3954 100.17 39.6865L100.148 39.6987C99.9716 39.7954 99.7788 39.8416 99.5886 39.8416Z" fill="#51A2FF"/>
<path d="M94.0564 42.8466C93.6745 42.8466 93.3026 42.661 93.0962 42.3285C92.7867 41.8301 92.9653 41.1902 93.495 40.8991L93.517 40.8869C94.0468 40.5958 94.7271 40.7641 95.0363 41.2621C95.3458 41.7605 95.1672 42.4004 94.6376 42.6915L94.6156 42.7036C94.4396 42.8004 94.2468 42.8466 94.0564 42.8466Z" fill="#51A2FF"/>
<path d="M96.8325 38.3451C96.2191 38.3451 95.7217 37.8774 95.7217 37.3002V37.2764C95.7217 36.6992 96.2191 36.2314 96.8325 36.2314C97.4459 36.2314 97.9433 36.6992 97.9433 37.2764V37.3002C97.9433 37.8774 97.4459 38.3451 96.8325 38.3451Z" fill="#51A2FF"/>
<path d="M96.8325 44.3539C96.2191 44.3539 95.7217 43.8862 95.7217 43.309V43.2852C95.7217 42.7079 96.2191 42.2402 96.8325 42.2402C97.4459 42.2402 97.9433 42.7079 97.9433 43.2852V43.309C97.9433 43.8862 97.4459 44.3539 96.8325 44.3539Z" fill="#51A2FF"/>
<path d="M27.5342 99.4441C27.3467 99.4441 27.1566 99.3994 26.9822 99.3051L26.9602 99.2932C26.4281 99.0059 26.2446 98.367 26.5501 97.8667C26.8555 97.3664 27.5347 97.1931 28.0665 97.4809L28.0885 97.4928C28.6206 97.7802 28.8041 98.419 28.4986 98.9193C28.2934 99.2556 27.9192 99.4441 27.5342 99.4441Z" fill="#51A2FF"/>
<path d="M33.0664 102.449C32.8762 102.449 32.6834 102.403 32.5072 102.306L32.4852 102.294C31.9556 102.003 31.777 101.363 32.0864 100.865C32.3959 100.367 33.0759 100.198 33.6058 100.489L33.6278 100.502C34.1574 100.793 34.336 101.433 34.0266 101.931C33.82 102.263 33.4483 102.449 33.0664 102.449Z" fill="#51A2FF"/>
<path d="M27.5342 99.4441C27.3467 99.4441 27.1566 99.3994 26.9822 99.3051L26.9602 99.2932C26.4281 99.0059 26.2446 98.367 26.5501 97.8667C26.8555 97.3664 27.5347 97.1931 28.0665 97.4809L28.0885 97.4928C28.6206 97.7802 28.8041 98.419 28.4986 98.9193C28.2934 99.2556 27.9192 99.4441 27.5342 99.4441Z" fill="#51A2FF"/>
<path d="M33.0664 102.449C32.8762 102.449 32.6834 102.403 32.5072 102.306L32.4852 102.294C31.9556 102.003 31.777 101.363 32.0864 100.865C32.3959 100.367 33.0759 100.198 33.6058 100.489L33.6278 100.502C34.1574 100.793 34.336 101.433 34.0266 101.931C33.82 102.263 33.4483 102.449 33.0664 102.449Z" fill="#51A2FF"/>
<path d="M33.0467 99.4439C32.6619 99.4439 32.2876 99.2556 32.0823 98.9191C31.7768 98.4186 31.9603 97.78 32.4924 97.4926L32.5144 97.4807C33.0465 97.1934 33.7254 97.3662 34.0309 97.8665C34.3363 98.367 34.1528 99.0057 33.6208 99.293L33.5988 99.3049C33.4244 99.399 33.2342 99.4439 33.0467 99.4439Z" fill="#51A2FF"/>
<path d="M27.5144 102.448C27.1325 102.448 26.7606 102.262 26.5542 101.93C26.2447 101.432 26.4233 100.792 26.953 100.501L26.975 100.488C27.5046 100.198 28.1849 100.366 28.4943 100.864C28.8038 101.362 28.6252 102.002 28.0956 102.293L28.0736 102.305C27.8974 102.402 27.7048 102.448 27.5144 102.448Z" fill="#51A2FF"/>
<path d="M33.0467 99.4439C32.6619 99.4439 32.2876 99.2556 32.0823 98.9191C31.7768 98.4186 31.9603 97.78 32.4924 97.4926L32.5144 97.4807C33.0465 97.1934 33.7254 97.3662 34.0309 97.8665C34.3363 98.367 34.1528 99.0057 33.6208 99.293L33.5988 99.3049C33.4244 99.399 33.2342 99.4439 33.0467 99.4439Z" fill="#51A2FF"/>
<path d="M27.5144 102.448C27.1325 102.448 26.7606 102.262 26.5542 101.93C26.2447 101.432 26.4233 100.792 26.953 100.501L26.975 100.488C27.5046 100.198 28.1849 100.366 28.4943 100.864C28.8038 101.362 28.6252 102.002 28.0956 102.293L28.0736 102.305C27.8974 102.402 27.7048 102.448 27.5144 102.448Z" fill="#51A2FF"/>
<path d="M30.2905 97.9474C29.6771 97.9474 29.1797 97.4797 29.1797 96.9025V96.8789C29.1797 96.3017 29.6771 95.834 30.2905 95.834C30.9039 95.834 31.4013 96.3017 31.4013 96.8789V96.9025C31.4013 97.4795 30.9041 97.9474 30.2905 97.9474Z" fill="#51A2FF"/>
<path d="M30.2905 103.956C29.6771 103.956 29.1797 103.489 29.1797 102.912V102.888C29.1797 102.31 29.6771 101.843 30.2905 101.843C30.9039 101.843 31.4013 102.31 31.4013 102.888V102.912C31.4013 103.489 30.9041 103.956 30.2905 103.956Z" fill="#51A2FF"/>
<path d="M93.1876 95.3414C93.0001 95.3414 92.8099 95.2967 92.6355 95.2024L92.6135 95.1905C92.0814 94.9032 91.8979 94.2643 92.2034 93.764C92.5089 93.2639 93.188 93.0907 93.7199 93.3782L93.7419 93.3901C94.2739 93.6775 94.4574 94.3163 94.152 94.8167C93.9467 95.1531 93.5726 95.3414 93.1876 95.3414Z" fill="#51A2FF"/>
<path d="M98.7198 98.3463C98.5323 98.3463 98.3421 98.3016 98.1677 98.2074L98.1457 98.1955C97.6136 97.9081 97.4301 97.2692 97.7356 96.7689C98.0411 96.2686 98.72 96.0956 99.2521 96.3831L99.2741 96.3951C99.8062 96.6824 99.9897 97.3213 99.6842 97.8216C99.4787 98.1581 99.1046 98.3463 98.7198 98.3463Z" fill="#51A2FF"/>
<path d="M93.1876 95.3414C93.0001 95.3414 92.8099 95.2967 92.6355 95.2024L92.6135 95.1905C92.0814 94.9032 91.8979 94.2643 92.2034 93.764C92.5089 93.2639 93.188 93.0907 93.7199 93.3782L93.7419 93.3901C94.2739 93.6775 94.4574 94.3163 94.152 94.8167C93.9467 95.1531 93.5726 95.3414 93.1876 95.3414Z" fill="#51A2FF"/>
<path d="M98.7198 98.3463C98.5323 98.3463 98.3421 98.3016 98.1677 98.2074L98.1457 98.1955C97.6136 97.9081 97.4301 97.2692 97.7356 96.7689C98.0411 96.2686 98.72 96.0956 99.2521 96.3831L99.2741 96.3951C99.8062 96.6824 99.9897 97.3213 99.6842 97.8216C99.4787 98.1581 99.1046 98.3463 98.7198 98.3463Z" fill="#51A2FF"/>
<path d="M98.7 95.3413C98.3152 95.3413 97.9409 95.153 97.7356 94.8165C97.4301 94.316 97.6136 93.6773 98.1457 93.39L98.1677 93.3781C98.6998 93.0909 99.3787 93.2636 99.6842 93.7639C99.9897 94.2644 99.8062 94.903 99.2741 95.1904L99.2521 95.2023C99.0777 95.2963 98.8875 95.3413 98.7 95.3413Z" fill="#51A2FF"/>
<path d="M93.1678 98.3462C92.783 98.3462 92.4087 98.1579 92.2034 97.8214C91.8979 97.3209 92.0814 96.6822 92.6135 96.3949L92.6355 96.383C93.1676 96.0958 93.8465 96.2684 94.152 96.7687C94.4574 97.2693 94.2739 97.9079 93.7419 98.1953L93.7199 98.2072C93.5457 98.3012 93.3555 98.3462 93.1678 98.3462Z" fill="#51A2FF"/>
<path d="M98.7 95.3413C98.3152 95.3413 97.9409 95.153 97.7356 94.8165C97.4301 94.316 97.6136 93.6773 98.1457 93.39L98.1677 93.3781C98.6998 93.0909 99.3787 93.2636 99.6842 93.7639C99.9897 94.2644 99.8062 94.903 99.2741 95.1904L99.2521 95.2023C99.0777 95.2963 98.8875 95.3413 98.7 95.3413Z" fill="#51A2FF"/>
<path d="M93.1678 98.3462C92.783 98.3462 92.4087 98.1579 92.2034 97.8214C91.8979 97.3209 92.0814 96.6822 92.6135 96.3949L92.6355 96.383C93.1676 96.0958 93.8465 96.2684 94.152 96.7687C94.4574 97.2693 94.2739 97.9079 93.7419 98.1953L93.7199 98.2072C93.5457 98.3012 93.3555 98.3462 93.1678 98.3462Z" fill="#51A2FF"/>
<path d="M95.9438 93.8449C95.3304 93.8449 94.833 93.3772 94.833 92.8V92.7764C94.833 92.1992 95.3304 91.7314 95.9438 91.7314C96.5572 91.7314 97.0546 92.1992 97.0546 92.7764V92.8C97.0546 93.3772 96.5572 93.8449 95.9438 93.8449Z" fill="#51A2FF"/>
<path d="M95.9438 99.8539C95.3304 99.8539 94.833 99.3862 94.833 98.809V98.7852C94.833 98.2079 95.3304 97.7402 95.9438 97.7402C96.5572 97.7402 97.0546 98.2079 97.0546 98.7852V98.809C97.0546 99.3862 96.5572 99.8539 95.9438 99.8539Z" fill="#51A2FF"/>
<defs>
<linearGradient id="paint0_linear_53_13564" x1="49.5" y1="102" x2="123.222" y2="32.3072" gradientUnits="userSpaceOnUse">
<stop stop-color="#DBEAFE" stop-opacity="0"/>
<stop offset="1" stop-color="#DBEAFE"/>
</linearGradient>
</defs>
</svg>
